<?xml version="1.0" encoding="utf-8"?>
<!-- Generator: Adobe Illustrator 16.0.0, SVG Export Plug-In . SVG Version: 6.00 Build 0)  -->
<!DOCTYPE svg PUBLIC "-//W3C//DTD SVG 1.1//EN" "http://www.w3.org/Graphics/SVG/1.1/DTD/svg11.dtd">
<svg version="1.1" id="Layer_1" xmlns="http://www.w3.org/2000/svg" xmlns:xlink="http://www.w3.org/1999/xlink" x="0px" y="0px"
	 width="195px" height="45px" viewBox="0 0 195 45" enable-background="new 0 0 195 45" xml:space="preserve">
<g>
	<path fill="#D8BC45" d="M59.083,18.261c0.061,0.066,0.164,0.103,0.321,0.095c0.158-0.007,0.382-0.05,0.688-0.093
		c0.307-0.04,0.703-0.073,1.216,0.007c0.508,0.083,1.153,0.295,1.821,0.768c0.329,0.236,0.662,0.541,0.938,0.914
		c0.278,0.37,0.491,0.814,0.568,1.283c0.087,0.523,0.08,1.126-0.1,1.757c-0.178,0.629-0.49,1.307-0.997,1.946
		c-0.493,0.645-1.163,1.252-1.96,1.725c-0.807,0.45-1.777,0.806-2.861,0.942c-0.268,0.052-0.549,0.043-0.83,0.066
		c-0.282,0.017-0.572-0.013-0.865-0.011c-0.584-0.061-1.188-0.135-1.787-0.315c-0.607-0.15-1.197-0.409-1.785-0.695
		c-0.278-0.171-0.581-0.313-0.845-0.518c-0.134-0.099-0.282-0.183-0.408-0.293c-0.128-0.108-0.257-0.217-0.388-0.326
		c-1.007-0.902-1.775-2.081-2.182-3.484c-0.418-1.39-0.469-2.958-0.14-4.458c0.173-0.748,0.431-1.479,0.786-2.162
		c0.369-0.674,0.821-1.293,1.36-1.838c0.294-0.258,0.565-0.545,0.897-0.762l0.237-0.177c0.078-0.06,0.155-0.12,0.245-0.166
		l0.515-0.305c0.706-0.372,1.459-0.697,2.267-0.891c1.601-0.44,3.344-0.483,5.053-0.301c1.714,0.198,3.398,0.679,4.967,1.349
		c1.585,0.71,3.093,1.582,4.518,2.542c1.427,0.962,2.78,1.996,4.088,3.022c2.611,2.059,5.068,4.074,7.5,5.598
		c2.42,1.53,4.754,2.612,6.796,3.188c0.126,0.039,0.251,0.076,0.376,0.112c0.126,0.029,0.25,0.06,0.371,0.091
		c0.246,0.057,0.482,0.112,0.713,0.167c0.234,0.042,0.461,0.082,0.681,0.119c0.109,0.02,0.218,0.039,0.323,0.058
		c0.107,0.012,0.213,0.022,0.316,0.035c0.412,0.045,0.795,0.093,1.15,0.097c0.354,0.014,0.676,0.034,0.965,0.015
		c0.289-0.011,0.544-0.015,0.766-0.029c0.219-0.022,0.405-0.044,0.555-0.061c0.299-0.032,0.455-0.05,0.455-0.05
		s-0.157,0.004-0.459,0.011c-0.148,0.004-0.335,0.008-0.554,0.014c-0.222-0.005-0.474-0.023-0.761-0.035
		c-0.285-0.005-0.6-0.051-0.946-0.094c-0.348-0.031-0.718-0.11-1.119-0.187c-0.1-0.02-0.202-0.041-0.305-0.06
		c-0.103-0.027-0.206-0.054-0.312-0.082c-0.21-0.055-0.429-0.11-0.652-0.169c-0.221-0.07-0.447-0.145-0.68-0.219
		c-0.117-0.039-0.234-0.077-0.354-0.115c-0.117-0.046-0.236-0.091-0.356-0.139c-1.935-0.715-4.108-1.934-6.343-3.584
		c-2.242-1.644-4.502-3.777-6.996-6.025c-1.252-1.122-2.57-2.271-4.001-3.371c-1.434-1.097-2.996-2.136-4.704-3.017
		c-1.742-0.867-3.629-1.519-5.613-1.851c-1.98-0.317-4.063-0.374-6.121,0.086c-1.03,0.203-2.041,0.576-3.008,1.042l-0.71,0.384
		c-0.122,0.061-0.233,0.136-0.345,0.213l-0.336,0.228c-0.461,0.288-0.861,0.657-1.275,1.008c-0.803,0.749-1.49,1.622-2.034,2.556
		c-0.532,0.944-0.919,1.948-1.186,2.973c-0.508,2.054-0.489,4.201,0.07,6.194c0.261,1.003,0.704,1.952,1.234,2.83
		c0.142,0.215,0.282,0.43,0.422,0.644c0.159,0.199,0.319,0.398,0.479,0.597c0.154,0.203,0.331,0.38,0.509,0.559
		c0.18,0.174,0.344,0.364,0.537,0.521c0.189,0.159,0.378,0.316,0.564,0.474c0.187,0.156,0.393,0.282,0.588,0.423
		c0.386,0.285,0.805,0.497,1.207,0.728c0.826,0.407,1.657,0.752,2.5,0.956c0.836,0.234,1.675,0.336,2.488,0.398
		c0.408,0,0.813,0.024,1.211-0.003c0.396-0.034,0.788-0.043,1.171-0.119c1.537-0.232,2.926-0.774,4.116-1.512
		c1.176-0.761,2.099-1.687,2.786-2.691c0.696-0.995,1.138-2.087,1.345-3.16c0.031-0.132,0.05-0.267,0.063-0.402
		c0.015-0.135,0.028-0.267,0.042-0.399c0.016-0.266,0.014-0.529,0.012-0.784c-0.024-0.257-0.039-0.51-0.08-0.754
		c-0.051-0.245-0.09-0.474-0.158-0.716c-0.283-0.98-0.806-1.739-1.358-2.298c-0.556-0.565-1.149-0.95-1.717-1.222
		c-1.142-0.535-2.187-0.62-2.981-0.507c-0.803,0.119-1.348,0.425-1.68,0.696c-0.332,0.279-0.477,0.52-0.533,0.688
		C59,18.1,59.024,18.199,59.083,18.261"/>
	<path fill="#D8BC45" d="M46.85,6.655c0.092,0.151,0.3,0.263,0.738,0.248c0.221-0.005,0.488-0.062,0.854-0.102
		c0.18-0.026,0.377-0.06,0.594-0.106c0.224-0.03,0.471-0.06,0.737-0.104c0.538-0.076,1.184-0.138,1.954-0.17
		c0.773-0.002,1.672-0.009,2.719,0.15c1.045,0.146,2.233,0.401,3.553,0.848c1.319,0.449,2.762,1.072,4.279,2.008
		c1.54,0.93,3.107,2.089,4.691,3.38c1.582,1.293,3.18,2.723,4.824,4.149c0.82,0.712,1.656,1.424,2.506,2.114
		c0.85,0.689,1.693,1.351,2.561,1.995c1.724,1.284,3.494,2.441,5.263,3.341c1.765,0.906,3.507,1.577,5.109,2.02
		c0.81,0.198,1.564,0.399,2.288,0.503c0.359,0.056,0.701,0.132,1.035,0.164c0.334,0.034,0.652,0.066,0.955,0.098
		c0.152,0.015,0.299,0.029,0.443,0.044c0.145,0.005,0.285,0.011,0.421,0.016c0.272,0.01,0.528,0.018,0.769,0.024
		c0.476,0.028,0.887,0.003,1.219-0.011c0.662-0.025,1.025-0.04,1.025-0.04s-0.36-0.039-1.02-0.109
		c-0.328-0.036-0.732-0.069-1.195-0.161c-0.232-0.04-0.482-0.084-0.746-0.13c-0.132-0.023-0.268-0.048-0.406-0.072
		c-0.137-0.034-0.279-0.068-0.424-0.104c-0.289-0.069-0.594-0.143-0.91-0.22c-0.317-0.072-0.639-0.191-0.976-0.29
		c-0.677-0.191-1.377-0.479-2.116-0.763c-1.469-0.614-3.027-1.445-4.582-2.483c-1.563-1.034-3.104-2.297-4.631-3.683
		c-0.76-0.691-1.534-1.423-2.292-2.159c-0.759-0.735-1.515-1.492-2.271-2.26c-1.517-1.531-3.051-3.091-4.664-4.535
		c-1.609-1.443-3.302-2.772-5.055-3.83c-1.76-1.084-3.494-1.801-5.075-2.267c-1.585-0.468-3.036-0.682-4.316-0.736
		c-1.28-0.068-2.394,0.077-3.324,0.25c-0.931,0.2-1.685,0.459-2.282,0.738c-0.296,0.146-0.561,0.277-0.789,0.411
		c-0.224,0.146-0.417,0.283-0.584,0.407c-0.338,0.24-0.547,0.488-0.689,0.677C46.755,6.287,46.76,6.508,46.85,6.655"/>
	<path fill="#D8BC45" d="M79.986,8.73c-0.055-0.105-0.152-0.202-0.367-0.233c-0.213-0.03-0.553,0.008-1.035,0.259
		c-0.479,0.251-1.106,0.731-1.699,1.62c-0.564,0.888-1.107,2.2-1.07,3.962c0.026,0.886,0.227,1.776,0.563,2.639
		c0.343,0.856,0.819,1.667,1.383,2.388c0.559,0.724,1.204,1.359,1.872,1.91c0.672,0.548,1.359,1.007,2.025,1.394
		c1.332,0.774,2.549,1.287,3.418,1.648c0.868,0.356,1.395,0.556,1.395,0.556s-0.458-0.33-1.217-0.876
		c-0.756-0.549-1.82-1.315-2.912-2.278c-1.096-0.96-2.184-2.144-2.952-3.471c-0.389-0.659-0.692-1.347-0.901-2.022
		c-0.203-0.673-0.316-1.354-0.334-1.955c-0.025-1.23,0.281-2.181,0.57-2.868c0.309-0.685,0.613-1.139,0.836-1.48
		c0.226-0.342,0.37-0.576,0.434-0.762C80.057,8.971,80.039,8.832,79.986,8.73"/>
	<path fill="#D8BC45" d="M83.141,4.265c0.109-0.045,0.204-0.153,0.207-0.448c0-0.073-0.002-0.16-0.018-0.258
		c-0.021-0.095-0.051-0.201-0.092-0.324c-0.022-0.062-0.045-0.128-0.068-0.195c-0.029-0.067-0.066-0.134-0.105-0.207
		c-0.077-0.142-0.16-0.311-0.286-0.468c-0.122-0.164-0.257-0.346-0.435-0.516c-0.17-0.184-0.377-0.354-0.611-0.535
		c-0.475-0.345-1.082-0.684-1.851-0.916c-0.767-0.229-1.696-0.358-2.763-0.225c-0.133,0.02-0.268,0.049-0.403,0.073
		c-0.136,0.025-0.274,0.055-0.413,0.098s-0.278,0.085-0.422,0.128c-0.133,0.055-0.271,0.109-0.409,0.166
		c-0.547,0.239-1.101,0.553-1.616,0.966c-1.033,0.824-1.887,1.95-2.432,3.233c-0.275,0.642-0.477,1.32-0.598,2.021
		c-0.122,0.702-0.154,1.41-0.117,2.105c0.072,1.396,0.439,2.733,0.961,3.93c0.521,1.197,1.191,2.265,1.911,3.181
		c1.44,1.831,2.989,3.102,4.089,3.983c0.553,0.438,1.004,0.776,1.316,1.008c0.313,0.229,0.482,0.354,0.482,0.354
		s-0.146-0.152-0.416-0.432c-0.27-0.278-0.659-0.684-1.135-1.199c-0.942-1.031-2.26-2.501-3.371-4.377
		c-0.557-0.933-1.039-1.975-1.377-3.078c-0.34-1.102-0.527-2.267-0.485-3.399c0.034-1.14,0.305-2.207,0.776-3.166
		c0.468-0.954,1.129-1.751,1.848-2.328c0.359-0.289,0.736-0.503,1.102-0.674c0.092-0.04,0.182-0.08,0.271-0.12
		c0.09-0.029,0.179-0.059,0.266-0.087c0.084-0.033,0.174-0.053,0.262-0.072c0.089-0.02,0.174-0.044,0.26-0.06
		c0.696-0.12,1.344-0.088,1.896,0.013c0.553,0.103,1.012,0.272,1.395,0.444c0.187,0.093,0.363,0.176,0.511,0.271
		c0.159,0.085,0.286,0.181,0.412,0.264c0.131,0.078,0.226,0.169,0.329,0.24c0.05,0.038,0.099,0.072,0.145,0.106
		c0.041,0.035,0.082,0.068,0.12,0.102c0.078,0.063,0.152,0.118,0.22,0.164c0.066,0.049,0.119,0.093,0.174,0.128
		C82.883,4.296,83.035,4.31,83.141,4.265"/>
	<path fill="#D8BC45" d="M74.016,28.199c0.137,0.195,0.426,0.357,1.109,0.189c0.703-0.136,1.785-0.624,3.811-1.22
		c1.018-0.277,2.182-0.548,3.384-0.702c1.2-0.157,2.433-0.194,3.539-0.126c1.109,0.064,2.079,0.262,2.777,0.414
		c0.347,0.082,0.618,0.17,0.813,0.22c0.191,0.053,0.296,0.081,0.296,0.081s-0.09-0.061-0.254-0.172
		c-0.167-0.108-0.405-0.279-0.718-0.468c-0.631-0.361-1.549-0.854-2.686-1.224c-1.135-0.372-2.477-0.644-3.844-0.698
		c-1.367-0.063-2.751,0.095-3.935,0.419c-0.294,0.09-0.569,0.179-0.829,0.265c-0.262,0.081-0.495,0.197-0.719,0.288
		c-0.451,0.182-0.821,0.398-1.143,0.588c-0.322,0.181-0.574,0.388-0.789,0.559c-0.211,0.177-0.383,0.327-0.506,0.483
		C73.825,27.701,73.887,28.011,74.016,28.199"/>
	<path fill="#D8BC45" d="M55.402,24.399c0,0-0.039-0.047-0.109-0.133c-0.067-0.089-0.182-0.199-0.301-0.368
		c-0.253-0.318-0.568-0.808-0.854-1.419c-0.58-1.215-0.936-3.019-0.537-4.733c0.404-1.716,1.521-3.175,2.581-4.007
		c0.524-0.422,1.025-0.72,1.393-0.894c0.183-0.099,0.333-0.148,0.433-0.196c0.102-0.047,0.156-0.071,0.156-0.071
		s-0.059-0.011-0.166-0.03c-0.109-0.013-0.277-0.055-0.49-0.062c-0.431-0.036-1.072-0.013-1.848,0.205
		c-0.389,0.107-0.799,0.276-1.227,0.501c-0.418,0.236-0.857,0.523-1.26,0.901c-0.816,0.738-1.537,1.816-1.852,3.118
		c-0.296,1.307-0.127,2.592,0.276,3.616c0.194,0.518,0.46,0.97,0.73,1.367c0.284,0.39,0.578,0.724,0.878,0.993
		c0.6,0.538,1.163,0.845,1.564,1.003c0.195,0.088,0.363,0.125,0.469,0.161C55.344,24.382,55.402,24.399,55.402,24.399"/>
	<path fill="#D8BC45" d="M61.576,23.878c0,0-0.041-0.011-0.115-0.032c-0.076-0.021-0.183-0.041-0.318-0.087
		c-0.268-0.077-0.639-0.215-1.035-0.417c-0.807-0.4-1.681-1.112-2.305-1.963c-0.629-0.85-1.049-1.896-1.189-2.785
		c-0.074-0.438-0.098-0.833-0.09-1.113c-0.004-0.142,0.01-0.25,0.01-0.327c0.003-0.078,0.004-0.121,0.004-0.121
		s-0.032,0.025-0.094,0.073c-0.057,0.051-0.154,0.121-0.257,0.229c-0.216,0.212-0.493,0.561-0.728,1.07
		c-0.236,0.508-0.406,1.183-0.376,1.957c0.028,0.771,0.28,1.644,0.833,2.403c0.563,0.755,1.321,1.256,2.048,1.511
		c0.73,0.26,1.425,0.298,1.98,0.225c0.557-0.073,0.972-0.235,1.237-0.379c0.135-0.064,0.231-0.137,0.296-0.177
		C61.541,23.902,61.576,23.878,61.576,23.878"/>
	<path fill="#D8BC45" d="M69.631,17.16c0,0,0.092,0.219,0.282,0.606c0.048,0.097,0.103,0.205,0.16,0.322
		c0.062,0.115,0.136,0.235,0.216,0.366c0.158,0.262,0.335,0.569,0.569,0.874c0.116,0.158,0.238,0.32,0.363,0.489
		c0.129,0.168,0.278,0.329,0.428,0.503c0.295,0.352,0.648,0.687,1.025,1.04c0.769,0.685,1.697,1.354,2.761,1.896
		c1.066,0.533,2.157,0.881,3.164,1.094c0.508,0.094,0.988,0.177,1.446,0.206c0.228,0.018,0.444,0.042,0.657,0.045
		c0.211,0.001,0.414,0.001,0.609,0.003c0.386,0.006,0.736-0.034,1.041-0.061c0.152-0.017,0.293-0.028,0.424-0.047
		c0.129-0.022,0.248-0.044,0.354-0.062c0.425-0.078,0.655-0.134,0.655-0.134s-0.227-0.09-0.625-0.23
		c-0.1-0.034-0.21-0.072-0.33-0.114c-0.119-0.045-0.248-0.097-0.387-0.148c-0.277-0.108-0.59-0.212-0.928-0.357
		c-0.17-0.066-0.348-0.138-0.53-0.21c-0.183-0.07-0.37-0.159-0.565-0.239c-0.391-0.155-0.795-0.351-1.223-0.534
		c-0.848-0.393-1.761-0.829-2.709-1.302c-0.945-0.482-1.838-0.957-2.658-1.405c-0.401-0.236-0.801-0.445-1.156-0.667
		c-0.18-0.109-0.361-0.208-0.528-0.313s-0.329-0.204-0.483-0.302c-0.318-0.186-0.588-0.376-0.838-0.534
		c-0.126-0.08-0.242-0.154-0.351-0.224c-0.104-0.071-0.202-0.138-0.288-0.198C69.838,17.288,69.631,17.16,69.631,17.16"/>
	<path fill="#D8BC45" d="M82.283,13.542c0,0,0.217,0.238,0.609,0.622c0.389,0.377,0.943,0.916,1.612,1.566
		c0.331,0.316,0.69,0.659,1.071,1.025c0.387,0.351,0.78,0.744,1.207,1.124c0.84,0.783,1.754,1.596,2.75,2.401
		c0.989,0.814,1.971,1.547,2.906,2.211c0.457,0.342,0.922,0.649,1.344,0.956c0.436,0.302,0.844,0.584,1.221,0.845
		c0.771,0.524,1.411,0.96,1.858,1.265c0.454,0.307,0.731,0.471,0.731,0.471s-0.024-0.312-0.115-0.866
		c-0.024-0.139-0.053-0.293-0.082-0.461c-0.035-0.166-0.08-0.344-0.13-0.534c-0.101-0.382-0.216-0.823-0.394-1.284
		c-0.085-0.232-0.178-0.476-0.28-0.726c-0.103-0.251-0.228-0.502-0.354-0.763c-0.25-0.53-0.568-1.059-0.922-1.608
		c-0.724-1.082-1.663-2.182-2.823-3.134c-1.167-0.944-2.433-1.644-3.638-2.136c-0.609-0.236-1.193-0.441-1.76-0.578
		c-0.283-0.072-0.553-0.144-0.818-0.194c-0.268-0.049-0.525-0.093-0.77-0.129c-0.485-0.08-0.941-0.104-1.334-0.128
		c-0.197-0.009-0.38-0.019-0.55-0.019c-0.171,0.004-0.328,0.008-0.47,0.012C82.594,13.502,82.283,13.542,82.283,13.542"/>
	<path fill="#D8BC45" d="M88.275,5.971c0,0,0.578,3.947,3.077,7.594c2.498,3.646,5.972,5.606,5.972,5.606s-0.576-3.947-3.075-7.592
		C91.75,7.933,88.275,5.971,88.275,5.971"/>
	<path fill="#D8BC45" d="M89.865,12.953h0.078c0.307,0,0.6,0.27,0.586,0.587c-0.014,0.316-0.257,0.586-0.586,0.586h-0.078
		c-0.307,0-0.602-0.271-0.587-0.586C89.293,13.222,89.536,12.953,89.865,12.953"/>
	<path fill="#D8BC45" d="M88.223,13.187c-0.754,0-0.756-1.173,0-1.173C88.977,12.014,88.979,13.187,88.223,13.187"/>
	<path fill="#D8BC45" d="M86.111,12.639c-0.755,0-0.756-1.172,0-1.172C86.865,11.467,86.868,12.639,86.111,12.639"/>
	<path fill="#D8BC45" d="M84.078,12.795c-0.754,0-0.756-1.172,0-1.172C84.833,11.624,84.834,12.795,84.078,12.795"/>
	<path fill="#D8BC45" d="M80.324,4.429h-0.078c-0.306,0-0.6-0.27-0.586-0.587s0.258-0.586,0.586-0.586h0.078
		c0.307,0,0.602,0.269,0.587,0.586C80.896,4.161,80.653,4.429,80.324,4.429"/>
	<path fill="#D8BC45" d="M78.525,4.116c-0.752,0-0.755-1.172,0-1.172S79.281,4.116,78.525,4.116"/>
	<path fill="#D8BC45" d="M76.65,4.664c-0.756,0-0.756-1.174,0-1.174C77.403,3.49,77.406,4.664,76.65,4.664"/>
	<path fill="#D8BC45" d="M75.242,6.619c-0.755,0-0.756-1.174,0-1.174C75.996,5.445,75.998,6.619,75.242,6.619"/>
	<path fill="#D8BC45" d="M50.029,5.313c0,0,0.059-0.029,0.174-0.087c0.115-0.052,0.271-0.151,0.495-0.241
		c0.432-0.204,1.087-0.445,1.927-0.634c0.84-0.19,1.88-0.29,3.041-0.239c1.162,0.054,2.443,0.279,3.73,0.694
		c2.611,0.86,4.83,2.295,6.391,3.425c0.782,0.566,1.406,1.055,1.836,1.398c0.43,0.345,0.668,0.536,0.668,0.536
		s-0.204-0.229-0.586-0.629c-0.379-0.399-0.939-0.963-1.669-1.614s-1.633-1.383-2.703-2.075c-1.07-0.695-2.315-1.338-3.691-1.793
		c-1.365-0.441-2.737-0.63-3.964-0.609c-1.23,0.021-2.311,0.229-3.158,0.526c-0.85,0.293-1.479,0.633-1.882,0.905
		C50.429,5,50.289,5.126,50.184,5.199C50.081,5.274,50.029,5.313,50.029,5.313"/>
	<path fill="#D8BC45" d="M50.293,3.214c0,0,0.065-0.024,0.191-0.068c0.128-0.042,0.313-0.111,0.552-0.19
		c0.485-0.144,1.19-0.338,2.075-0.457c1.764-0.245,4.255-0.144,6.811,0.697c2.559,0.844,4.68,2.13,6.163,3.118
		c0.742,0.499,1.327,0.928,1.733,1.225c0.402,0.3,0.626,0.467,0.626,0.467s-0.194-0.2-0.546-0.561
		c-0.359-0.354-0.883-0.861-1.576-1.447c-0.691-0.583-1.553-1.241-2.584-1.876c-1.025-0.637-2.231-1.232-3.569-1.678
		c-1.347-0.432-2.688-0.651-3.913-0.672c-1.225-0.029-2.324,0.115-3.22,0.338s-1.582,0.517-2.045,0.731
		c-0.229,0.113-0.402,0.211-0.521,0.273C50.354,3.179,50.293,3.214,50.293,3.214"/>
	<path fill="#D8BC45" d="M52.363,0.926c0,0,0.059-0.01,0.168-0.026c0.111-0.021,0.273-0.041,0.485-0.063
		c0.212-0.021,0.468-0.057,0.766-0.067c0.149-0.009,0.309-0.019,0.478-0.028c0.168-0.001,0.345-0.004,0.531-0.006
		c0.744,0,1.627,0.044,2.585,0.189c0.958,0.144,1.995,0.378,3.054,0.723c2.098,0.69,3.848,1.621,5.064,2.342
		c0.612,0.358,1.092,0.669,1.422,0.883c0.168,0.105,0.294,0.19,0.38,0.249c0.087,0.058,0.133,0.088,0.133,0.088
		s-0.042-0.037-0.119-0.105c-0.077-0.069-0.192-0.172-0.343-0.297c-0.304-0.255-0.746-0.621-1.328-1.039
		c-1.152-0.837-2.881-1.911-5.045-2.623c-1.092-0.355-2.173-0.564-3.164-0.663c-0.992-0.1-1.896-0.076-2.651-0.01
		c-0.187,0.02-0.367,0.038-0.537,0.055c-0.17,0.028-0.329,0.052-0.479,0.076c-0.298,0.043-0.552,0.108-0.761,0.153
		c-0.207,0.046-0.367,0.086-0.475,0.12C52.419,0.91,52.363,0.926,52.363,0.926"/>
	<path fill="#D8BC45" d="M84.365,20.237c0,0,1.753,2.192,4.566,3.609c2.811,1.416,5.617,1.518,5.617,1.518s-1.754-2.192-4.566-3.609
		C87.172,20.339,84.365,20.237,84.365,20.237"/>
	<path fill="#D8BC45" d="M88.785,39.238c-0.043-0.162,0.204-0.333,0.467-0.668c0.033-0.041,0.066-0.085,0.102-0.131
		c0.031-0.05,0.061-0.104,0.094-0.158c0.035-0.049,0.063-0.11,0.09-0.174s0.064-0.12,0.084-0.193
		c0.105-0.269,0.172-0.603,0.17-0.965c-0.002-0.358-0.076-0.753-0.262-1.082c-0.051-0.079-0.09-0.167-0.154-0.233
		c-0.031-0.035-0.057-0.074-0.087-0.108c-0.035-0.03-0.069-0.062-0.103-0.094c-0.057-0.067-0.157-0.116-0.234-0.18
		c-0.091-0.047-0.177-0.104-0.276-0.142c-0.765-0.353-1.952-0.175-2.739,0.487c-0.103,0.075-0.184,0.173-0.273,0.261
		c-0.074,0.1-0.158,0.188-0.227,0.308c-0.144,0.223-0.26,0.468-0.338,0.733c-0.166,0.527-0.195,1.123-0.107,1.705
		c0.088,0.584,0.301,1.155,0.607,1.648c0.16,0.252,0.342,0.491,0.541,0.716c0.205,0.221,0.424,0.428,0.656,0.619
		c0.935,0.76,2.082,1.247,3.129,1.518c1.049,0.254,2.061,0.263,2.891,0.161c0.854-0.1,1.694-0.323,2.473-0.67
		c0.779-0.343,1.495-0.815,2.078-1.403c0.583-0.586,1.024-1.298,1.239-2.079c0.11-0.39,0.17-0.797,0.17-1.205
		c0.01-0.102,0.005-0.204-0.007-0.306l-0.021-0.306c-0.029-0.202-0.067-0.405-0.112-0.605c-0.415-1.607-1.591-3.028-3.06-3.939
		c-0.738-0.464-1.537-0.798-2.396-1.009c-0.861-0.207-1.754-0.3-2.658-0.307c-2.272-0.01-4.552,0.514-6.822,1.115
		c-2.275,0.598-4.532,1.304-6.795,2.022c-4.526,1.438-9.088,2.98-13.883,3.947c-2.397,0.484-4.844,0.805-7.324,0.907
		c-2.479,0.086-4.994-0.037-7.479-0.521c-0.623-0.104-1.236-0.268-1.854-0.414c-0.307-0.078-0.609-0.178-0.916-0.267
		c-0.304-0.09-0.609-0.179-0.908-0.293L43.64,37.61c-0.299-0.116-0.591-0.246-0.885-0.37l-0.44-0.188
		c-0.147-0.067-0.291-0.144-0.436-0.215l-0.865-0.438c-0.28-0.16-0.557-0.328-0.834-0.493l-0.416-0.249l-0.398-0.273l-0.795-0.551
		l-0.757-0.602l-0.378-0.303l-0.357-0.325l-0.709-0.653l-0.668-0.7l-0.332-0.35l-0.309-0.373c-1.195-1.411-2.172-2.993-2.84-4.555
		c-0.68-1.56-0.993-3.108-1.096-4.369c-0.018-0.305-0.031-0.592-0.039-0.859c0-0.267,0.029-0.519,0.047-0.748
		c0.021-0.23,0.046-0.441,0.072-0.632c0.025-0.19,0.084-0.363,0.125-0.515c0.182-0.613,0.371-0.913,0.553-0.933
		c0.184-0.018,0.359,0.243,0.516,0.757c0.08,0.257,0.141,0.575,0.26,0.955c0.108,0.381,0.189,0.821,0.359,1.316
		c0.064,0.214,0.127,0.438,0.19,0.667c0.083,0.226,0.169,0.459,0.257,0.701c0.15,0.487,0.404,0.977,0.613,1.498
		c0.499,1.018,1.103,2.092,1.858,3.13c0.767,1.029,1.657,2.028,2.637,2.935c0.977,0.909,2.063,1.692,3.147,2.364l0.726,0.43
		l0.751,0.382l0.374,0.19l0.392,0.169c0.26,0.111,0.519,0.229,0.779,0.337c0.536,0.19,1.059,0.413,1.606,0.569
		c0.272,0.083,0.54,0.179,0.814,0.252l0.826,0.216c1.106,0.268,2.229,0.487,3.369,0.62c1.136,0.15,2.285,0.22,3.437,0.251
		c4.622,0.118,9.255-0.634,13.849-1.705c4.601-1.069,9.183-2.447,13.899-3.546c2.35-0.538,4.76-1.091,7.283-1.142
		c1.256-0.021,2.538,0.091,3.782,0.429c1.254,0.329,2.45,0.936,3.466,1.761c0.435,0.339,0.906,0.799,1.377,1.379
		c0.467,0.582,0.92,1.306,1.221,2.188c0.301,0.878,0.432,1.922,0.25,2.993c-0.178,1.071-0.707,2.151-1.5,3.022
		c-0.788,0.878-1.808,1.563-2.928,2.04c-1.121,0.477-2.35,0.752-3.611,0.799c-0.631,0.021-1.271-0.014-1.904-0.12
		c-0.316-0.055-0.637-0.126-0.944-0.212c-0.305-0.084-0.606-0.185-0.905-0.296c-1.188-0.449-2.328-1.127-3.236-2.083
		c-0.449-0.478-0.84-1.022-1.133-1.627c-0.287-0.6-0.467-1.238-0.548-1.883c-0.161-1.284,0.128-2.655,0.914-3.69
		c0.404-0.53,0.916-0.929,1.456-1.206c0.543-0.275,1.115-0.435,1.689-0.482c0.57-0.047,1.145,0.019,1.67,0.204
		c0.525,0.188,0.988,0.487,1.353,0.877c0.368,0.396,0.604,0.86,0.712,1.304c0.111,0.443,0.141,0.87,0.094,1.257
		c-0.082,0.774-0.406,1.396-0.777,1.802c-0.375,0.411-0.796,0.587-1.072,0.635C88.96,39.387,88.81,39.333,88.785,39.238"/>
	<path fill="#D8BC45" d="M81.576,35.161c-0.754,0-0.756-1.174,0-1.174C82.331,33.987,82.331,35.161,81.576,35.161"/>
	<path fill="#D8BC45" d="M79.464,36.021c-0.755,0-0.756-1.174,0-1.174S80.221,36.021,79.464,36.021"/>
	<path fill="#D8BC45" d="M77.432,36.725c-0.755,0-0.756-1.172,0-1.172C78.186,35.553,78.188,36.725,77.432,36.725"/>
	<path fill="#D8BC45" d="M74.813,36.92v-0.077c0-0.308,0.27-0.602,0.586-0.587c0.317,0.015,0.586,0.258,0.586,0.587v0.077
		c0,0.308-0.27,0.601-0.586,0.587C75.08,37.492,74.813,37.25,74.813,36.92"/>
	<path fill="#D8BC45" d="M73.209,37.741c-0.756,0-0.756-1.173,0-1.173C73.964,36.568,73.965,37.741,73.209,37.741"/>
	<path fill="#D8BC45" d="M37.178,11.492c-0.167-0.061-0.366-0.087-0.604-0.001c-0.235,0.086-0.521,0.285-0.81,0.702
		c-0.293,0.413-0.602,1.045-0.827,1.985c-0.224,0.937-0.358,2.193-0.161,3.779c0.201,1.583,0.807,3.324,1.77,4.83
		c0.954,1.51,2.23,2.749,3.477,3.619c1.246,0.88,2.464,1.386,3.332,1.67c0.439,0.139,0.789,0.233,1.035,0.283
		c0.242,0.054,0.376,0.082,0.376,0.082s-0.112-0.078-0.315-0.219c-0.205-0.137-0.49-0.354-0.834-0.628
		c-0.686-0.557-1.58-1.393-2.391-2.467c-0.814-1.069-1.551-2.36-2.044-3.693c-0.498-1.331-0.763-2.699-0.921-3.922
		c-0.15-1.225-0.168-2.191-0.186-2.958c-0.019-0.766-0.043-1.337-0.108-1.77c-0.069-0.434-0.171-0.726-0.313-0.928
		C37.512,11.656,37.34,11.549,37.178,11.492"/>
	<path fill="#D8BC45" d="M19.953,34.058c0.072,0.05,0.171,0.077,0.299,0.068c0.063-0.005,0.133-0.017,0.209-0.039
		c0.082-0.019,0.174-0.045,0.271-0.081c0.208-0.061,0.455-0.157,0.78-0.234c0.324-0.073,0.731-0.14,1.195-0.098
		c0.231,0.021,0.476,0.068,0.71,0.162c0.235,0.092,0.447,0.221,0.653,0.415c0.202,0.194,0.405,0.443,0.542,0.76
		c0.143,0.309,0.226,0.674,0.209,1.021c-0.008,0.178-0.034,0.335-0.104,0.503c-0.017,0.041-0.03,0.084-0.044,0.128l-0.066,0.121
		c-0.033,0.085-0.102,0.159-0.152,0.24c-0.23,0.317-0.631,0.616-1.146,0.839c-0.266,0.102-0.552,0.19-0.86,0.239
		c-0.306,0.041-0.632,0.071-0.952,0.039c-0.08,0-0.157-0.022-0.237-0.03c-0.079-0.009-0.159-0.02-0.235-0.043
		c-0.077-0.021-0.15-0.03-0.234-0.059c-0.084-0.027-0.168-0.056-0.254-0.082c-0.338-0.128-0.675-0.299-1-0.517
		c-0.652-0.434-1.242-1.047-1.643-1.772c-0.406-0.729-0.619-1.531-0.596-2.401c0.021-0.864,0.277-1.769,0.746-2.545
		c0.232-0.388,0.518-0.743,0.843-1.05l0.122-0.115l0.136-0.105c0.093-0.069,0.179-0.146,0.272-0.212
		c0.196-0.122,0.386-0.26,0.602-0.359c0.202-0.119,0.431-0.197,0.65-0.294c0.233-0.07,0.459-0.162,0.703-0.209
		c0.48-0.126,0.989-0.183,1.504-0.208c0.516-0.031,1.039,0.011,1.563,0.063c0.523,0.07,1.045,0.165,1.555,0.306
		c0.514,0.142,1.006,0.304,1.5,0.515c0.496,0.201,0.982,0.438,1.459,0.684c0.951,0.499,1.863,1.064,2.745,1.643
		c1.765,1.155,3.424,2.334,5.042,3.226c1.611,0.896,3.158,1.496,4.487,1.807c0.663,0.162,1.274,0.233,1.807,0.282
		c0.534,0.031,0.991,0.026,1.36,0c0.186-0.019,0.348-0.033,0.488-0.046c0.141-0.022,0.258-0.042,0.354-0.058
		c0.189-0.031,0.288-0.049,0.288-0.049s-0.1,0.004-0.292,0.01c-0.096,0.003-0.213,0.007-0.354,0.01
		c-0.141-0.006-0.302-0.012-0.485-0.02c-0.363-0.019-0.808-0.073-1.315-0.17c-0.507-0.111-1.08-0.253-1.694-0.485
		c-1.228-0.453-2.618-1.194-4.053-2.223c-1.438-1.021-2.919-2.336-4.598-3.703c-0.839-0.683-1.737-1.373-2.724-2.02
		c-0.496-0.319-1.012-0.633-1.555-0.916c-0.539-0.29-1.129-0.55-1.724-0.771c-0.601-0.224-1.225-0.396-1.864-0.537
		c-0.645-0.122-1.303-0.229-1.98-0.244c-0.678-0.022-1.369,0.001-2.063,0.124c-0.348,0.045-0.692,0.145-1.039,0.229
		c-0.341,0.114-0.688,0.215-1.02,0.37c-1.344,0.557-2.564,1.564-3.392,2.786c-0.833,1.22-1.329,2.646-1.433,4.108
		c-0.051,0.731-0.001,1.476,0.154,2.196c0.156,0.721,0.412,1.403,0.744,2.031c0.66,1.259,1.625,2.294,2.746,3.044
		c0.559,0.374,1.153,0.673,1.762,0.894c0.156,0.049,0.309,0.099,0.461,0.147c0.154,0.047,0.326,0.079,0.484,0.116
		c0.163,0.042,0.324,0.063,0.484,0.083c0.16,0.019,0.319,0.046,0.477,0.049c1.26,0.077,2.418-0.172,3.442-0.632
		c1.015-0.477,1.913-1.188,2.503-2.114c0.143-0.235,0.283-0.463,0.381-0.715c0.052-0.122,0.104-0.242,0.15-0.366
		c0.035-0.125,0.07-0.251,0.104-0.374c0.138-0.495,0.18-1.017,0.147-1.484c-0.061-0.947-0.371-1.757-0.785-2.411
		c-0.412-0.661-0.951-1.165-1.516-1.527c-0.566-0.363-1.182-0.567-1.728-0.639c-0.55-0.078-1.04-0.039-1.464,0.047
		c-0.852,0.175-1.438,0.537-1.838,0.872c-0.401,0.343-0.613,0.681-0.732,0.935c-0.055,0.134-0.091,0.245-0.109,0.342
		c-0.014,0.1-0.014,0.181-0.006,0.248C19.824,33.934,19.882,34.011,19.953,34.058"/>
	<path fill="#D8BC45" d="M136.13,18.261c-0.061,0.066-0.164,0.103-0.321,0.095c-0.16-0.007-0.381-0.05-0.688-0.093
		c-0.306-0.04-0.703-0.073-1.216,0.007c-0.509,0.083-1.153,0.295-1.821,0.768c-0.33,0.236-0.662,0.541-0.938,0.914
		c-0.278,0.37-0.491,0.814-0.568,1.283c-0.087,0.523-0.08,1.126,0.1,1.757c0.178,0.629,0.49,1.307,0.997,1.946
		c0.493,0.645,1.163,1.252,1.96,1.725c0.805,0.45,1.777,0.806,2.859,0.942c0.268,0.052,0.551,0.043,0.832,0.066
		c0.282,0.017,0.572-0.013,0.865-0.011c0.584-0.061,1.188-0.135,1.787-0.315c0.607-0.15,1.198-0.409,1.785-0.695
		c0.278-0.171,0.581-0.313,0.844-0.518c0.135-0.099,0.283-0.183,0.409-0.293c0.128-0.108,0.257-0.217,0.388-0.326
		c1.007-0.902,1.775-2.081,2.182-3.484c0.417-1.39,0.468-2.958,0.14-4.458c-0.175-0.748-0.433-1.479-0.786-2.162
		c-0.369-0.674-0.821-1.293-1.361-1.838c-0.293-0.258-0.564-0.545-0.896-0.762l-0.236-0.177c-0.079-0.06-0.158-0.12-0.246-0.166
		l-0.515-0.305c-0.707-0.372-1.458-0.697-2.267-0.891c-1.601-0.44-3.344-0.483-5.053-0.301c-1.714,0.198-3.398,0.679-4.967,1.349
		c-1.586,0.71-3.093,1.582-4.52,2.542c-1.425,0.962-2.778,1.996-4.087,3.022c-2.61,2.059-5.066,4.074-7.499,5.598
		c-2.42,1.53-4.755,2.612-6.796,3.188c-0.126,0.039-0.253,0.076-0.376,0.112c-0.126,0.029-0.25,0.06-0.371,0.091
		c-0.244,0.057-0.482,0.112-0.713,0.167c-0.234,0.042-0.461,0.082-0.682,0.119c-0.109,0.02-0.217,0.039-0.322,0.058
		c-0.107,0.012-0.213,0.022-0.316,0.035c-0.412,0.045-0.795,0.093-1.15,0.097c-0.354,0.014-0.674,0.034-0.965,0.015
		c-0.289-0.011-0.544-0.015-0.766-0.029c-0.219-0.022-0.405-0.044-0.555-0.061c-0.299-0.032-0.455-0.05-0.455-0.05
		s0.157,0.004,0.457,0.011c0.15,0.004,0.336,0.008,0.557,0.014c0.219-0.005,0.473-0.023,0.758-0.035
		c0.287-0.005,0.604-0.051,0.948-0.094c0.347-0.031,0.72-0.11,1.119-0.187c0.1-0.02,0.2-0.041,0.305-0.06
		c0.103-0.027,0.206-0.054,0.312-0.082c0.21-0.055,0.428-0.11,0.652-0.169c0.22-0.07,0.447-0.145,0.68-0.219
		c0.117-0.039,0.234-0.077,0.354-0.115c0.117-0.046,0.236-0.091,0.356-0.139c1.935-0.715,4.108-1.934,6.343-3.584
		c2.242-1.644,4.502-3.777,6.996-6.025c1.252-1.122,2.57-2.271,4.001-3.371c1.434-1.097,2.997-2.136,4.703-3.017
		c1.745-0.867,3.63-1.519,5.613-1.851c1.98-0.317,4.063-0.374,6.122,0.086c1.03,0.203,2.04,0.576,3.008,1.042l0.71,0.384
		c0.122,0.061,0.233,0.136,0.344,0.213l0.338,0.228c0.46,0.288,0.86,0.657,1.274,1.008c0.803,0.749,1.488,1.622,2.034,2.556
		c0.53,0.944,0.919,1.948,1.185,2.973c0.508,2.054,0.49,4.201-0.069,6.194c-0.261,1.003-0.704,1.952-1.233,2.83
		c-0.143,0.215-0.281,0.43-0.423,0.644c-0.16,0.199-0.319,0.398-0.479,0.597c-0.154,0.203-0.333,0.38-0.509,0.559
		c-0.18,0.174-0.344,0.364-0.536,0.521c-0.19,0.159-0.379,0.316-0.565,0.474c-0.188,0.156-0.393,0.282-0.589,0.423
		c-0.385,0.285-0.804,0.497-1.205,0.728c-0.829,0.407-1.659,0.752-2.501,0.956c-0.836,0.234-1.675,0.336-2.488,0.398
		c-0.41,0-0.813,0.024-1.209-0.003c-0.398-0.034-0.79-0.043-1.173-0.119c-1.537-0.232-2.925-0.774-4.116-1.512
		c-1.176-0.761-2.099-1.687-2.786-2.691c-0.697-0.995-1.138-2.087-1.345-3.16c-0.031-0.132-0.051-0.267-0.063-0.402
		c-0.014-0.135-0.029-0.267-0.043-0.399c-0.018-0.266-0.016-0.529-0.013-0.784c0.025-0.257,0.04-0.51,0.08-0.754
		c0.052-0.245,0.09-0.474,0.159-0.716c0.283-0.98,0.806-1.739,1.358-2.298c0.556-0.565,1.148-0.95,1.717-1.222
		c1.142-0.535,2.186-0.62,2.981-0.507c0.802,0.119,1.348,0.425,1.68,0.696c0.332,0.279,0.477,0.52,0.531,0.688
		C136.213,18.1,136.188,18.199,136.13,18.261"/>
	<path fill="#D8BC45" d="M148.363,6.655c-0.092,0.151-0.3,0.263-0.738,0.248c-0.221-0.005-0.488-0.062-0.854-0.102
		c-0.179-0.026-0.376-0.06-0.593-0.106c-0.224-0.03-0.471-0.06-0.738-0.104c-0.537-0.076-1.183-0.138-1.953-0.17
		c-0.773-0.002-1.672-0.009-2.719,0.15c-1.044,0.146-2.234,0.401-3.553,0.848c-1.319,0.449-2.762,1.072-4.277,2.008
		c-1.543,0.93-3.109,2.089-4.693,3.38c-1.582,1.293-3.18,2.723-4.825,4.149c-0.82,0.712-1.655,1.424-2.505,2.114
		c-0.85,0.689-1.693,1.351-2.559,1.995c-1.726,1.284-3.496,2.441-5.266,3.341c-1.764,0.906-3.504,1.577-5.108,2.02
		c-0.81,0.198-1.565,0.399-2.288,0.503c-0.36,0.056-0.701,0.132-1.035,0.164c-0.334,0.034-0.652,0.066-0.955,0.098
		c-0.152,0.015-0.299,0.029-0.443,0.044c-0.145,0.005-0.285,0.011-0.422,0.016c-0.272,0.01-0.527,0.018-0.768,0.024
		c-0.477,0.028-0.887,0.003-1.219-0.011c-0.662-0.025-1.025-0.04-1.025-0.04s0.36-0.039,1.02-0.109
		c0.328-0.036,0.732-0.069,1.195-0.161c0.232-0.04,0.482-0.084,0.746-0.13c0.131-0.023,0.267-0.048,0.406-0.072
		c0.137-0.034,0.279-0.068,0.424-0.104c0.289-0.069,0.594-0.143,0.91-0.22c0.317-0.072,0.639-0.191,0.975-0.29
		c0.677-0.191,1.378-0.479,2.117-0.763c1.469-0.614,3.025-1.445,4.584-2.483c1.559-1.034,3.102-2.297,4.629-3.683
		c0.76-0.691,1.533-1.423,2.292-2.159c0.759-0.735,1.513-1.492,2.271-2.26c1.517-1.531,3.051-3.091,4.664-4.535
		c1.61-1.443,3.302-2.772,5.055-3.83c1.758-1.084,3.494-1.801,5.074-2.267c1.585-0.468,3.037-0.682,4.317-0.736
		c1.28-0.068,2.394,0.077,3.323,0.25c0.932,0.2,1.686,0.459,2.283,0.738c0.296,0.146,0.56,0.277,0.789,0.411
		c0.224,0.146,0.417,0.283,0.584,0.407c0.338,0.24,0.547,0.488,0.691,0.677C148.458,6.287,148.453,6.508,148.363,6.655"/>
	<path fill="#D8BC45" d="M115.227,8.73c0.055-0.105,0.152-0.202,0.365-0.233c0.215-0.03,0.555,0.008,1.037,0.259
		c0.479,0.251,1.106,0.731,1.699,1.62c0.564,0.888,1.107,2.2,1.072,3.962c-0.028,0.886-0.229,1.776-0.565,2.639
		c-0.341,0.856-0.819,1.667-1.383,2.388c-0.56,0.724-1.204,1.359-1.872,1.91c-0.672,0.548-1.359,1.007-2.025,1.394
		c-1.33,0.774-2.549,1.287-3.416,1.648c-0.871,0.356-1.397,0.556-1.397,0.556s0.459-0.33,1.218-0.876
		c0.756-0.549,1.82-1.315,2.912-2.278c1.096-0.96,2.183-2.144,2.952-3.471c0.389-0.659,0.692-1.347,0.901-2.022
		c0.203-0.673,0.316-1.354,0.334-1.955c0.025-1.23-0.281-2.181-0.57-2.868c-0.311-0.685-0.613-1.139-0.836-1.48
		c-0.226-0.342-0.37-0.576-0.435-0.762C115.154,8.971,115.174,8.832,115.227,8.73"/>
	<path fill="#D8BC45" d="M112.072,4.265c-0.109-0.045-0.204-0.153-0.207-0.448c0-0.073,0.002-0.16,0.018-0.258
		c0.021-0.095,0.051-0.201,0.092-0.324c0.022-0.062,0.045-0.128,0.07-0.195c0.027-0.067,0.064-0.134,0.102-0.207
		c0.08-0.142,0.162-0.311,0.289-0.468c0.119-0.164,0.256-0.346,0.436-0.516c0.167-0.184,0.376-0.354,0.609-0.535
		c0.475-0.345,1.082-0.684,1.852-0.916c0.766-0.229,1.696-0.358,2.761-0.225c0.134,0.02,0.267,0.049,0.403,0.073
		c0.137,0.025,0.275,0.055,0.413,0.098s0.279,0.085,0.421,0.128c0.135,0.055,0.272,0.109,0.411,0.166
		c0.547,0.239,1.101,0.553,1.617,0.966c1.03,0.824,1.886,1.95,2.433,3.233c0.273,0.642,0.477,1.32,0.596,2.021
		c0.122,0.702,0.154,1.41,0.117,2.105c-0.072,1.396-0.441,2.733-0.961,3.93c-0.521,1.197-1.191,2.265-1.91,3.181
		c-1.441,1.831-2.99,3.102-4.09,3.983c-0.554,0.438-1.006,0.776-1.316,1.008c-0.313,0.229-0.482,0.354-0.482,0.354
		s0.146-0.152,0.416-0.432c0.268-0.278,0.659-0.684,1.135-1.199c0.942-1.031,2.26-2.501,3.372-4.377
		c0.554-0.933,1.036-1.975,1.376-3.078c0.34-1.102,0.527-2.267,0.485-3.399c-0.034-1.14-0.305-2.207-0.776-3.166
		c-0.467-0.954-1.127-1.751-1.848-2.328c-0.361-0.289-0.735-0.503-1.102-0.674c-0.092-0.04-0.184-0.08-0.273-0.12
		c-0.088-0.029-0.177-0.059-0.264-0.087c-0.084-0.033-0.174-0.053-0.264-0.072c-0.087-0.02-0.172-0.044-0.258-0.06
		c-0.696-0.12-1.346-0.088-1.896,0.013c-0.555,0.103-1.014,0.272-1.395,0.444c-0.187,0.093-0.363,0.176-0.511,0.271
		c-0.159,0.085-0.287,0.181-0.412,0.264c-0.132,0.078-0.226,0.169-0.328,0.24c-0.051,0.038-0.1,0.072-0.145,0.106
		c-0.042,0.035-0.083,0.068-0.122,0.102c-0.077,0.063-0.151,0.118-0.221,0.164c-0.063,0.049-0.117,0.093-0.172,0.128
		C112.328,4.296,112.178,4.31,112.072,4.265"/>
	<path fill="#D8BC45" d="M121.195,28.199c-0.135,0.195-0.424,0.357-1.107,0.189c-0.703-0.136-1.786-0.624-3.811-1.22
		c-1.018-0.277-2.182-0.548-3.384-0.702c-1.199-0.157-2.431-0.194-3.539-0.126c-1.109,0.064-2.077,0.262-2.777,0.414
		c-0.347,0.082-0.62,0.17-0.812,0.22c-0.191,0.053-0.299,0.081-0.299,0.081s0.091-0.061,0.255-0.172
		c0.167-0.108,0.403-0.279,0.717-0.468c0.632-0.361,1.548-0.854,2.687-1.224c1.133-0.372,2.477-0.644,3.844-0.698
		c1.367-0.063,2.751,0.095,3.935,0.419c0.292,0.09,0.569,0.179,0.829,0.265c0.262,0.081,0.494,0.197,0.72,0.288
		c0.45,0.182,0.819,0.398,1.14,0.588c0.324,0.181,0.576,0.388,0.789,0.559c0.213,0.177,0.385,0.327,0.506,0.483
		C121.388,27.701,121.326,28.011,121.195,28.199"/>
	<path fill="#D8BC45" d="M139.812,24.399c0,0,0.038-0.047,0.108-0.133c0.068-0.089,0.182-0.199,0.301-0.368
		c0.252-0.318,0.567-0.808,0.854-1.419c0.58-1.215,0.936-3.019,0.535-4.733c-0.4-1.716-1.519-3.175-2.578-4.007
		c-0.527-0.422-1.027-0.72-1.394-0.894c-0.183-0.099-0.333-0.148-0.434-0.196c-0.101-0.047-0.155-0.071-0.155-0.071
		s0.059-0.011,0.166-0.03c0.109-0.013,0.275-0.055,0.49-0.062c0.431-0.036,1.072-0.013,1.848,0.205
		c0.389,0.107,0.801,0.276,1.229,0.501c0.415,0.236,0.855,0.523,1.258,0.901c0.816,0.738,1.537,1.816,1.852,3.118
		c0.295,1.307,0.127,2.592-0.276,3.616c-0.194,0.518-0.462,0.97-0.73,1.367c-0.284,0.39-0.577,0.724-0.878,0.993
		c-0.598,0.538-1.163,0.845-1.565,1.003c-0.194,0.088-0.363,0.125-0.466,0.161C139.867,24.382,139.812,24.399,139.812,24.399"/>
	<path fill="#D8BC45" d="M133.637,23.878c0,0,0.041-0.011,0.115-0.032c0.076-0.021,0.184-0.041,0.317-0.087
		c0.269-0.077,0.64-0.215,1.036-0.417c0.806-0.4,1.681-1.112,2.305-1.963c0.627-0.85,1.048-1.896,1.189-2.785
		c0.074-0.438,0.098-0.833,0.092-1.113c0.002-0.142-0.012-0.25-0.013-0.327c-0.003-0.078-0.003-0.121-0.003-0.121
		s0.032,0.025,0.094,0.073c0.058,0.051,0.154,0.121,0.257,0.229c0.214,0.212,0.493,0.561,0.729,1.07
		c0.235,0.508,0.405,1.183,0.373,1.957c-0.027,0.771-0.279,1.644-0.833,2.403c-0.562,0.755-1.319,1.256-2.046,1.511
		c-0.731,0.26-1.426,0.298-1.981,0.225c-0.557-0.073-0.974-0.235-1.238-0.379c-0.134-0.064-0.23-0.137-0.296-0.177
		C133.671,23.902,133.637,23.878,133.637,23.878"/>
	<path fill="#D8BC45" d="M125.582,17.16c0,0-0.093,0.219-0.282,0.606c-0.049,0.097-0.103,0.205-0.161,0.322
		c-0.063,0.115-0.135,0.235-0.215,0.366c-0.158,0.262-0.336,0.569-0.569,0.874c-0.116,0.158-0.238,0.32-0.364,0.489
		c-0.129,0.168-0.277,0.329-0.427,0.503c-0.295,0.352-0.647,0.687-1.025,1.04c-0.769,0.685-1.697,1.354-2.761,1.896
		c-1.066,0.533-2.157,0.881-3.164,1.094c-0.508,0.094-0.988,0.177-1.446,0.206c-0.229,0.018-0.446,0.042-0.659,0.045
		c-0.209,0.001-0.412,0.001-0.607,0.003c-0.386,0.006-0.738-0.034-1.042-0.061c-0.153-0.017-0.292-0.028-0.423-0.047
		c-0.129-0.022-0.248-0.044-0.354-0.062c-0.425-0.078-0.655-0.134-0.655-0.134s0.227-0.09,0.625-0.23
		c0.1-0.034,0.21-0.072,0.329-0.114c0.12-0.045,0.25-0.097,0.388-0.148c0.277-0.108,0.59-0.212,0.928-0.357
		c0.17-0.066,0.348-0.138,0.531-0.21c0.182-0.07,0.369-0.159,0.564-0.239c0.391-0.155,0.795-0.351,1.223-0.534
		c0.85-0.393,1.761-0.829,2.711-1.302c0.943-0.482,1.836-0.957,2.656-1.405c0.401-0.236,0.799-0.445,1.156-0.667
		c0.18-0.109,0.361-0.208,0.528-0.313s0.329-0.204,0.483-0.302c0.317-0.186,0.587-0.376,0.838-0.534
		c0.125-0.08,0.242-0.154,0.351-0.224c0.104-0.071,0.2-0.138,0.288-0.198C125.375,17.288,125.582,17.16,125.582,17.16"/>
	<path fill="#D8BC45" d="M112.93,13.542c0,0-0.217,0.238-0.609,0.622c-0.389,0.377-0.943,0.916-1.612,1.566
		c-0.331,0.316-0.69,0.659-1.071,1.025c-0.387,0.351-0.78,0.744-1.207,1.124c-0.84,0.783-1.756,1.596-2.75,2.401
		c-0.99,0.814-1.97,1.547-2.906,2.211c-0.457,0.342-0.922,0.649-1.344,0.956c-0.436,0.302-0.844,0.584-1.221,0.845
		c-0.771,0.524-1.411,0.96-1.859,1.265c-0.453,0.307-0.731,0.471-0.731,0.471s0.025-0.312,0.116-0.866
		c0.024-0.139,0.053-0.293,0.083-0.461c0.034-0.166,0.08-0.344,0.128-0.534c0.103-0.382,0.217-0.823,0.395-1.284
		c0.085-0.232,0.178-0.476,0.28-0.726c0.104-0.251,0.228-0.502,0.354-0.763c0.251-0.53,0.569-1.059,0.923-1.608
		c0.725-1.082,1.662-2.182,2.823-3.134c1.166-0.944,2.433-1.644,3.636-2.136c0.611-0.236,1.195-0.441,1.762-0.578
		c0.282-0.072,0.553-0.144,0.818-0.194c0.269-0.049,0.523-0.093,0.77-0.129c0.485-0.08,0.941-0.104,1.334-0.128
		c0.199-0.009,0.381-0.019,0.55-0.019c0.171,0.004,0.327,0.008,0.468,0.012C112.618,13.502,112.93,13.542,112.93,13.542"/>
	<path fill="#D8BC45" d="M106.937,5.971c0,0-0.577,3.947-3.076,7.594c-2.498,3.646-5.973,5.606-5.973,5.606s0.578-3.947,3.076-7.592
		C103.463,7.933,106.937,5.971,106.937,5.971"/>
	<path fill="#D8BC45" d="M97.605,1.906c1.658,2.412,1.195,4.065,1.195,4.065s0.438-1.036,2.192-1.036
		c1.753,0,2.558,2.281,2.558,2.281c-4.313,1.288-5.945,5.355-5.945,5.355s-1.631-4.067-5.943-5.355c0,0,0.805-2.281,2.558-2.281
		c1.755,0,2.192,1.036,2.192,1.036S95.949,4.318,97.605,1.906"/>
	<path fill="#D8BC45" d="M105.348,12.953h-0.078c-0.306,0-0.602,0.27-0.586,0.587c0.014,0.316,0.257,0.586,0.586,0.586h0.078
		c0.307,0,0.602-0.271,0.587-0.586C105.921,13.222,105.677,12.953,105.348,12.953"/>
	<path fill="#D8BC45" d="M106.99,13.187c0.754,0,0.756-1.173,0-1.173C106.236,12.014,106.234,13.187,106.99,13.187"/>
	<path fill="#D8BC45" d="M109.102,12.639c0.754,0,0.756-1.172,0-1.172S108.345,12.639,109.102,12.639"/>
	<path fill="#D8BC45" d="M111.135,12.795c0.754,0,0.756-1.172,0-1.172C110.38,11.624,110.377,12.795,111.135,12.795"/>
	<path fill="#D8BC45" d="M114.888,4.429h0.079c0.306,0,0.6-0.27,0.586-0.587s-0.257-0.586-0.586-0.586h-0.079
		c-0.306,0-0.601,0.269-0.586,0.586C114.315,4.161,114.56,4.429,114.888,4.429"/>
	<path fill="#D8BC45" d="M116.686,4.116c0.756,0,0.757-1.172,0-1.172C115.932,2.944,115.93,4.116,116.686,4.116"/>
	<path fill="#D8BC45" d="M118.563,4.664c0.755,0,0.758-1.174,0-1.174C117.809,3.49,117.807,4.664,118.563,4.664"/>
	<path fill="#D8BC45" d="M119.971,6.619c0.755,0,0.756-1.174,0-1.174C119.217,5.445,119.215,6.619,119.971,6.619"/>
	<path fill="#D8BC45" d="M145.184,5.313c0,0-0.059-0.029-0.172-0.087c-0.117-0.052-0.272-0.151-0.497-0.241
		c-0.432-0.204-1.087-0.445-1.927-0.634c-0.84-0.19-1.88-0.29-3.041-0.239c-1.162,0.054-2.442,0.279-3.73,0.694
		c-2.612,0.86-4.83,2.295-6.393,3.425c-0.78,0.566-1.404,1.055-1.834,1.398c-0.43,0.345-0.668,0.536-0.668,0.536
		s0.204-0.229,0.584-0.629c0.382-0.399,0.941-0.963,1.672-1.614c0.729-0.651,1.631-1.383,2.702-2.075
		c1.069-0.695,2.315-1.338,3.691-1.793c1.365-0.441,2.737-0.63,3.964-0.609c1.23,0.021,2.311,0.229,3.158,0.526
		c0.85,0.293,1.479,0.633,1.881,0.905c0.21,0.123,0.35,0.25,0.454,0.322C145.131,5.274,145.184,5.313,145.184,5.313"/>
	<path fill="#D8BC45" d="M144.92,3.214c0,0-0.066-0.024-0.193-0.068c-0.126-0.042-0.311-0.111-0.551-0.19
		c-0.485-0.144-1.188-0.338-2.074-0.457c-1.764-0.245-4.256-0.144-6.811,0.697c-2.56,0.844-4.68,2.13-6.163,3.118
		c-0.742,0.499-1.327,0.928-1.733,1.225c-0.403,0.3-0.626,0.467-0.626,0.467s0.194-0.2,0.546-0.561
		c0.359-0.354,0.885-0.861,1.576-1.447c0.69-0.583,1.553-1.241,2.584-1.876c1.025-0.637,2.231-1.232,3.569-1.678
		c1.347-0.432,2.69-0.651,3.913-0.672c1.224-0.029,2.324,0.115,3.219,0.338c0.896,0.223,1.583,0.517,2.046,0.731
		c0.229,0.113,0.401,0.211,0.521,0.273C144.861,3.179,144.92,3.214,144.92,3.214"/>
	<path fill="#D8BC45" d="M142.85,0.926c0,0-0.059-0.01-0.168-0.026c-0.111-0.021-0.275-0.041-0.486-0.063
		c-0.211-0.021-0.467-0.057-0.766-0.067c-0.148-0.009-0.308-0.019-0.477-0.028c-0.168-0.001-0.345-0.004-0.531-0.006
		c-0.744,0-1.627,0.044-2.585,0.189c-0.958,0.144-1.995,0.378-3.054,0.723c-2.098,0.69-3.849,1.621-5.064,2.342
		c-0.612,0.358-1.092,0.669-1.423,0.883c-0.167,0.105-0.294,0.19-0.379,0.249c-0.088,0.058-0.133,0.088-0.133,0.088
		s0.042-0.037,0.118-0.105c0.078-0.069,0.191-0.172,0.345-0.297c0.303-0.255,0.745-0.621,1.327-1.039
		c1.151-0.837,2.881-1.911,5.045-2.623c1.093-0.355,2.172-0.564,3.163-0.663c0.991-0.1,1.896-0.076,2.651-0.01
		c0.189,0.02,0.367,0.038,0.538,0.055c0.169,0.028,0.329,0.052,0.478,0.076c0.299,0.043,0.554,0.108,0.76,0.153
		c0.209,0.046,0.369,0.086,0.477,0.12C142.794,0.91,142.85,0.926,142.85,0.926"/>
	<path fill="#D8BC45" d="M110.848,20.237c0,0-1.753,2.192-4.566,3.609c-2.811,1.416-5.617,1.518-5.617,1.518
		s1.753-2.192,4.565-3.609C108.041,20.339,110.848,20.237,110.848,20.237"/>
	<path fill="#D8BC45" d="M106.428,39.238c0.043-0.162-0.205-0.333-0.468-0.668c-0.032-0.041-0.065-0.085-0.103-0.131
		c-0.029-0.05-0.061-0.104-0.092-0.158c-0.037-0.049-0.063-0.11-0.09-0.174c-0.027-0.063-0.064-0.12-0.083-0.193
		c-0.106-0.269-0.173-0.603-0.171-0.965c0.002-0.358,0.076-0.753,0.262-1.082c0.051-0.079,0.09-0.167,0.154-0.233
		c0.031-0.035,0.057-0.074,0.087-0.108c0.035-0.03,0.069-0.062,0.103-0.094c0.057-0.067,0.158-0.116,0.234-0.18
		c0.091-0.047,0.177-0.104,0.276-0.142c0.763-0.353,1.951-0.175,2.739,0.487c0.103,0.075,0.184,0.173,0.273,0.261
		c0.074,0.1,0.158,0.188,0.227,0.308c0.144,0.223,0.26,0.468,0.338,0.733c0.166,0.527,0.197,1.123,0.107,1.705
		c-0.088,0.584-0.301,1.155-0.607,1.648c-0.16,0.252-0.342,0.491-0.541,0.716c-0.205,0.221-0.424,0.428-0.655,0.619
		c-0.936,0.76-2.083,1.247-3.13,1.518c-1.049,0.254-2.061,0.263-2.892,0.161c-0.853-0.1-1.693-0.323-2.472-0.67
		c-0.779-0.343-1.495-0.815-2.078-1.403c-0.584-0.586-1.024-1.298-1.24-2.079c-0.109-0.39-0.17-0.797-0.17-1.205
		c-0.009-0.102-0.003-0.204,0.007-0.306l0.022-0.306c0.031-0.202,0.067-0.405,0.112-0.605c0.415-1.607,1.589-3.028,3.06-3.939
		c0.738-0.464,1.537-0.798,2.396-1.009c0.861-0.207,1.754-0.3,2.658-0.307c2.272-0.01,4.552,0.514,6.822,1.115
		c2.275,0.598,4.531,1.304,6.795,2.022c4.525,1.438,9.086,2.98,13.883,3.947c2.397,0.484,4.846,0.805,7.324,0.907
		c2.479,0.086,4.994-0.037,7.479-0.521c0.623-0.104,1.237-0.268,1.854-0.414c0.307-0.078,0.611-0.178,0.916-0.267
		c0.305-0.09,0.609-0.179,0.908-0.293l0.9-0.324c0.297-0.116,0.59-0.246,0.884-0.37l0.44-0.188c0.146-0.067,0.289-0.144,0.434-0.215
		l0.867-0.438c0.28-0.16,0.557-0.328,0.834-0.493l0.414-0.249l0.4-0.273l0.795-0.551l0.756-0.602l0.377-0.303l0.357-0.325
		l0.712-0.653l0.667-0.7l0.332-0.35l0.309-0.373c1.195-1.411,2.172-2.993,2.838-4.555c0.682-1.56,0.995-3.108,1.096-4.369
		c0.02-0.305,0.031-0.592,0.041-0.859c0-0.267-0.029-0.519-0.048-0.748c-0.021-0.23-0.045-0.441-0.071-0.632
		c-0.025-0.19-0.084-0.363-0.125-0.515c-0.184-0.613-0.371-0.913-0.553-0.933c-0.184-0.018-0.359,0.243-0.518,0.757
		c-0.078,0.257-0.141,0.575-0.26,0.955c-0.106,0.381-0.188,0.821-0.357,1.316c-0.064,0.214-0.129,0.438-0.19,0.667
		c-0.083,0.226-0.169,0.459-0.257,0.701c-0.15,0.487-0.404,0.977-0.613,1.498c-0.499,1.018-1.104,2.092-1.858,3.13
		c-0.769,1.029-1.659,2.028-2.637,2.935c-0.977,0.909-2.063,1.692-3.147,2.364l-0.727,0.43l-0.75,0.382l-0.374,0.19l-0.392,0.169
		c-0.26,0.111-0.519,0.229-0.781,0.337c-0.534,0.19-1.057,0.413-1.605,0.569c-0.27,0.083-0.539,0.179-0.813,0.252l-0.826,0.216
		c-1.106,0.268-2.229,0.487-3.369,0.62c-1.136,0.15-2.285,0.22-3.438,0.251c-4.621,0.118-9.253-0.634-13.848-1.705
		c-4.6-1.069-9.182-2.447-13.899-3.546c-2.349-0.538-4.761-1.091-7.282-1.142c-1.256-0.021-2.539,0.091-3.783,0.429
		c-1.253,0.329-2.449,0.936-3.465,1.761c-0.436,0.339-0.907,0.799-1.379,1.379c-0.464,0.582-0.918,1.306-1.219,2.188
		c-0.302,0.878-0.434,1.922-0.251,2.993c0.18,1.071,0.708,2.151,1.499,3.022c0.79,0.878,1.81,1.563,2.928,2.04
		c1.123,0.477,2.354,0.752,3.613,0.799c0.631,0.021,1.271-0.014,1.904-0.12c0.317-0.055,0.637-0.126,0.944-0.212
		c0.306-0.084,0.606-0.185,0.905-0.296c1.188-0.449,2.328-1.127,3.236-2.083c0.449-0.478,0.84-1.022,1.131-1.627
		c0.289-0.6,0.469-1.238,0.549-1.883c0.162-1.284-0.127-2.655-0.913-3.69c-0.404-0.53-0.916-0.929-1.456-1.206
		c-0.541-0.275-1.115-0.435-1.688-0.482c-0.572-0.047-1.145,0.019-1.672,0.204c-0.525,0.188-0.99,0.487-1.352,0.877
		c-0.369,0.396-0.605,0.86-0.715,1.304s-0.139,0.87-0.092,1.257c0.081,0.774,0.408,1.396,0.777,1.802
		c0.377,0.411,0.795,0.587,1.072,0.635C106.253,39.387,106.403,39.333,106.428,39.238"/>
	<path fill="#D8BC45" d="M113.637,35.161c0.755,0,0.755-1.174,0-1.174C112.883,33.987,112.881,35.161,113.637,35.161"/>
	<path fill="#D8BC45" d="M115.748,36.021c0.754,0,0.756-1.174,0-1.174C114.994,34.848,114.992,36.021,115.748,36.021"/>
	<path fill="#D8BC45" d="M117.781,36.725c0.755,0,0.756-1.172,0-1.172C117.027,35.553,117.025,36.725,117.781,36.725"/>
	<path fill="#D8BC45" d="M120.4,36.92v-0.077c0-0.308-0.27-0.602-0.586-0.587c-0.318,0.015-0.587,0.258-0.587,0.587v0.077
		c0,0.308,0.27,0.601,0.587,0.587C120.131,37.492,120.4,37.25,120.4,36.92"/>
	<path fill="#D8BC45" d="M122.004,37.741c0.754,0,0.756-1.173,0-1.173C121.249,36.568,121.248,37.741,122.004,37.741"/>
	<path fill="#D8BC45" d="M158.035,11.492c0.167-0.061,0.367-0.087,0.604-0.001c0.234,0.086,0.519,0.285,0.81,0.702
		c0.293,0.413,0.602,1.045,0.827,1.985c0.224,0.937,0.356,2.193,0.16,3.779c-0.2,1.583-0.806,3.324-1.769,4.83
		c-0.954,1.51-2.23,2.749-3.477,3.619c-1.246,0.88-2.463,1.386-3.332,1.67c-0.439,0.139-0.789,0.233-1.035,0.283
		c-0.244,0.054-0.376,0.082-0.376,0.082s0.112-0.078,0.315-0.219c0.203-0.137,0.49-0.354,0.836-0.628
		c0.682-0.557,1.578-1.393,2.388-2.467c0.817-1.069,1.55-2.36,2.044-3.693c0.499-1.331,0.764-2.699,0.924-3.922
		c0.15-1.225,0.166-2.191,0.184-2.958c0.019-0.766,0.043-1.337,0.107-1.77c0.07-0.434,0.172-0.726,0.316-0.928
		C157.703,11.656,157.873,11.549,158.035,11.492"/>
	<path fill="#D8BC45" d="M175.26,34.058c-0.074,0.05-0.171,0.077-0.297,0.068c-0.063-0.005-0.135-0.017-0.211-0.039
		c-0.084-0.019-0.174-0.045-0.273-0.081c-0.206-0.061-0.451-0.157-0.778-0.234c-0.324-0.073-0.729-0.14-1.196-0.098
		c-0.23,0.021-0.477,0.068-0.71,0.162c-0.235,0.092-0.446,0.221-0.653,0.415c-0.202,0.194-0.404,0.443-0.541,0.76
		c-0.143,0.309-0.227,0.674-0.209,1.021c0.006,0.178,0.035,0.335,0.104,0.503c0.018,0.041,0.031,0.084,0.045,0.128l0.066,0.121
		c0.033,0.085,0.102,0.159,0.153,0.24c0.229,0.317,0.63,0.616,1.146,0.839c0.264,0.102,0.552,0.19,0.86,0.239
		c0.308,0.041,0.631,0.071,0.952,0.039c0.082,0,0.157-0.022,0.237-0.03c0.081-0.009,0.161-0.02,0.235-0.043
		c0.077-0.021,0.151-0.03,0.234-0.059c0.084-0.027,0.168-0.056,0.254-0.082c0.338-0.128,0.675-0.299,1-0.517
		c0.65-0.434,1.241-1.047,1.643-1.772c0.406-0.729,0.619-1.531,0.596-2.401c-0.021-0.864-0.277-1.769-0.746-2.545
		c-0.232-0.388-0.518-0.743-0.843-1.05l-0.122-0.115l-0.137-0.105c-0.092-0.069-0.178-0.146-0.272-0.212
		c-0.196-0.122-0.385-0.26-0.601-0.359c-0.202-0.119-0.431-0.197-0.65-0.294c-0.233-0.07-0.459-0.162-0.705-0.209
		c-0.479-0.126-0.988-0.183-1.502-0.208c-0.515-0.031-1.039,0.011-1.563,0.063c-0.523,0.07-1.045,0.165-1.556,0.306
		c-0.512,0.142-1.005,0.304-1.501,0.515c-0.496,0.201-0.979,0.438-1.457,0.684c-0.951,0.499-1.863,1.064-2.746,1.643
		c-1.765,1.155-3.423,2.334-5.041,3.226c-1.611,0.896-3.158,1.496-4.487,1.807c-0.663,0.162-1.275,0.233-1.807,0.282
		c-0.534,0.031-0.991,0.026-1.36,0c-0.186-0.019-0.348-0.033-0.49-0.046c-0.139-0.022-0.258-0.042-0.352-0.058
		c-0.189-0.031-0.289-0.049-0.289-0.049s0.101,0.004,0.293,0.01c0.096,0.003,0.213,0.007,0.354,0.01
		c0.141-0.006,0.302-0.012,0.485-0.02c0.363-0.019,0.807-0.073,1.315-0.17c0.507-0.111,1.08-0.253,1.693-0.485
		c1.227-0.453,2.619-1.194,4.053-2.223c1.439-1.021,2.92-2.336,4.598-3.703c0.84-0.683,1.738-1.373,2.725-2.02
		c0.496-0.319,1.01-0.633,1.555-0.916c0.539-0.29,1.128-0.55,1.725-0.771c0.6-0.224,1.224-0.396,1.863-0.537
		c0.645-0.122,1.303-0.229,1.98-0.244c0.676-0.022,1.369,0.001,2.063,0.124c0.348,0.045,0.692,0.145,1.039,0.229
		c0.341,0.114,0.688,0.215,1.02,0.37c1.342,0.557,2.564,1.564,3.392,2.786c0.835,1.22,1.328,2.646,1.431,4.108
		c0.053,0.731,0.003,1.476-0.154,2.196c-0.154,0.721-0.41,1.403-0.74,2.031c-0.664,1.259-1.627,2.294-2.746,3.044
		c-0.562,0.374-1.156,0.673-1.764,0.894c-0.156,0.049-0.309,0.099-0.463,0.147c-0.152,0.047-0.322,0.079-0.482,0.116
		c-0.163,0.042-0.324,0.063-0.484,0.083c-0.16,0.019-0.32,0.046-0.477,0.049c-1.26,0.077-2.42-0.172-3.442-0.632
		c-1.015-0.477-1.913-1.188-2.503-2.114c-0.141-0.235-0.283-0.463-0.381-0.715c-0.052-0.122-0.104-0.242-0.148-0.366
		c-0.037-0.125-0.072-0.251-0.107-0.374c-0.139-0.495-0.18-1.017-0.146-1.484c0.059-0.947,0.37-1.757,0.785-2.411
		c0.411-0.661,0.951-1.165,1.516-1.527c0.566-0.363,1.182-0.567,1.728-0.639c0.55-0.078,1.041-0.039,1.464,0.047
		c0.851,0.175,1.438,0.537,1.838,0.872c0.401,0.343,0.611,0.681,0.732,0.935c0.055,0.134,0.09,0.245,0.109,0.342
		c0.014,0.1,0.014,0.181,0.004,0.248C175.391,33.934,175.332,34.011,175.26,34.058"/>
	<rect x="3.52" y="39.45" fill="#D8BC45" width="188.217" height="0.57"/>
	<path fill="#D8BC45" d="M190.863,35.126c0,0-0.076,0.063-0.198,0.179c-0.12,0.112-0.292,0.275-0.499,0.473
		c-0.102,0.097-0.211,0.202-0.327,0.315c-0.113,0.113-0.238,0.229-0.36,0.354c-0.25,0.247-0.51,0.517-0.769,0.812
		c-0.261,0.292-0.498,0.582-0.714,0.86c-0.108,0.137-0.208,0.274-0.309,0.398c-0.097,0.13-0.189,0.252-0.272,0.363
		c-0.171,0.229-0.312,0.419-0.411,0.553c-0.1,0.135-0.152,0.218-0.152,0.218s0.096-0.004,0.267-0.024
		c0.043-0.006,0.089-0.012,0.142-0.02c0.052-0.008,0.105-0.02,0.165-0.032c0.118-0.027,0.254-0.057,0.397-0.104
		c0.072-0.023,0.146-0.049,0.226-0.077c0.077-0.027,0.155-0.063,0.238-0.099c0.164-0.068,0.33-0.16,0.503-0.261
		c0.339-0.209,0.688-0.482,0.994-0.825c0.303-0.345,0.531-0.723,0.698-1.085c0.079-0.184,0.15-0.359,0.199-0.53
		c0.025-0.086,0.052-0.168,0.069-0.248c0.02-0.082,0.035-0.159,0.05-0.233c0.03-0.148,0.044-0.287,0.056-0.407
		c0.005-0.06,0.01-0.115,0.012-0.168c0.002-0.052,0.002-0.1,0.003-0.143C190.87,35.221,190.863,35.126,190.863,35.126"/>
	<path fill="#D8BC45" d="M193.085,36.879c0,0-1.209,0.178-2.324,0.943c-1.116,0.764-1.717,1.827-1.717,1.827
		s1.208-0.177,2.324-0.941S193.085,36.879,193.085,36.879"/>
	<path fill="#D8BC45" d="M190.947,37.366v0.023c0,0.093-0.082,0.185-0.18,0.18c-0.097-0.004-0.178-0.079-0.178-0.18v-0.023
		c0-0.095,0.081-0.185,0.178-0.18C190.865,37.191,190.947,37.266,190.947,37.366"/>
	<path fill="#D8BC45" d="M190.877,36.863c0-0.23,0.359-0.232,0.359,0C191.236,37.094,190.877,37.094,190.877,36.863"/>
	<path fill="#D8BC45" d="M191.044,36.217c0-0.23,0.358-0.23,0.358,0S191.044,36.449,191.044,36.217"/>
	<path fill="#D8BC45" d="M190.995,35.595c0-0.23,0.36-0.23,0.36,0S190.995,35.825,190.995,35.595"/>
	<path fill="#D8BC45" d="M188.719,35.683c0,0-0.672,0.537-1.104,1.396c-0.435,0.861-0.466,1.721-0.466,1.721
		s0.672-0.537,1.105-1.397C188.688,36.541,188.719,35.683,188.719,35.683"/>
	<path fill="#D8BC45" d="M190.768,44.425c0,0-0.074-0.066-0.189-0.186c-0.116-0.119-0.281-0.289-0.48-0.494
		c-0.096-0.102-0.201-0.211-0.313-0.327c-0.108-0.119-0.229-0.239-0.344-0.369c-0.241-0.258-0.489-0.537-0.735-0.842
		c-0.249-0.304-0.474-0.604-0.677-0.891c-0.104-0.139-0.199-0.281-0.292-0.411c-0.094-0.132-0.18-0.259-0.26-0.373
		c-0.16-0.236-0.293-0.433-0.387-0.569c-0.094-0.139-0.145-0.224-0.145-0.224s0.097,0.007,0.267,0.035
		c0.042,0.007,0.089,0.017,0.14,0.025c0.051,0.01,0.105,0.024,0.164,0.039c0.117,0.031,0.253,0.066,0.394,0.121
		c0.071,0.025,0.145,0.055,0.222,0.085c0.077,0.032,0.152,0.069,0.232,0.109c0.163,0.077,0.324,0.174,0.494,0.282
		c0.33,0.221,0.666,0.509,0.958,0.863c0.29,0.357,0.503,0.745,0.653,1.114c0.072,0.187,0.135,0.365,0.178,0.539
		c0.021,0.086,0.044,0.168,0.06,0.25c0.015,0.081,0.028,0.16,0.039,0.234c0.025,0.149,0.032,0.289,0.039,0.409
		c0.003,0.061,0.006,0.117,0.006,0.169c-0.001,0.051-0.003,0.1-0.003,0.143C190.779,44.33,190.768,44.425,190.768,44.425"/>
	<path fill="#D8BC45" d="M193.085,42.591c0,0-1.209-0.177-2.324-0.94c-1.116-0.766-1.717-1.829-1.717-1.829s1.208,0.177,2.324,0.942
		C192.484,41.527,193.085,42.591,193.085,42.591"/>
	<path fill="#D8BC45" d="M194.329,39.735c-0.739,0.507-1.244,0.364-1.244,0.364s0.317,0.135,0.317,0.672s-0.699,0.784-0.699,0.784
		c-0.395-1.321-1.639-1.82-1.639-1.82s1.244-0.499,1.639-1.818c0,0,0.699,0.245,0.699,0.782s-0.317,0.671-0.317,0.671
		S193.59,39.228,194.329,39.735"/>
	<path fill="#D8BC45" d="M190.947,42.104V42.08c0-0.094-0.082-0.184-0.18-0.179c-0.097,0.004-0.178,0.079-0.178,0.179v0.024
		c0,0.095,0.081,0.185,0.178,0.18C190.865,42.279,190.947,42.205,190.947,42.104"/>
	<path fill="#D8BC45" d="M190.877,42.607c0,0.231,0.359,0.231,0.359,0C191.236,42.377,190.877,42.376,190.877,42.607"/>
	<path fill="#D8BC45" d="M191.044,43.254c0,0.23,0.358,0.23,0.358,0S191.044,43.023,191.044,43.254"/>
	<path fill="#D8BC45" d="M190.995,43.876c0,0.23,0.36,0.23,0.36,0S190.995,43.646,190.995,43.876"/>
	<path fill="#D8BC45" d="M188.719,43.788c0,0-0.672-0.536-1.104-1.398c-0.435-0.859-0.466-1.719-0.466-1.719
		s0.672,0.537,1.105,1.398C188.688,42.93,188.719,43.788,188.719,43.788"/>
	<path fill="#D8BC45" d="M4.137,35.126c0,0,0.077,0.063,0.199,0.179c0.119,0.112,0.291,0.275,0.5,0.473
		c0.1,0.097,0.209,0.202,0.326,0.315c0.112,0.113,0.237,0.229,0.359,0.354c0.25,0.247,0.51,0.517,0.769,0.812
		c0.261,0.292,0.499,0.582,0.714,0.86c0.109,0.137,0.209,0.274,0.309,0.398c0.097,0.13,0.189,0.252,0.273,0.363
		c0.17,0.229,0.311,0.419,0.408,0.553c0.1,0.135,0.154,0.218,0.154,0.218s-0.096-0.004-0.266-0.024
		c-0.043-0.006-0.09-0.012-0.143-0.02c-0.052-0.008-0.105-0.02-0.166-0.032c-0.116-0.027-0.252-0.057-0.396-0.104
		c-0.072-0.023-0.147-0.049-0.226-0.077c-0.077-0.027-0.155-0.063-0.237-0.099c-0.164-0.068-0.331-0.16-0.504-0.261
		c-0.34-0.209-0.688-0.482-0.994-0.825c-0.303-0.345-0.531-0.723-0.697-1.085c-0.081-0.184-0.151-0.359-0.2-0.53
		c-0.025-0.086-0.051-0.168-0.069-0.248c-0.02-0.082-0.035-0.159-0.049-0.233c-0.031-0.148-0.045-0.287-0.057-0.407
		c-0.006-0.06-0.01-0.115-0.014-0.168c0-0.052,0-0.1-0.001-0.143C4.129,35.221,4.137,35.126,4.137,35.126"/>
	<path fill="#D8BC45" d="M1.915,36.879c0,0,1.208,0.178,2.324,0.943c1.116,0.764,1.717,1.827,1.717,1.827s-1.208-0.177-2.324-0.941
		S1.915,36.879,1.915,36.879"/>
	<path fill="#D8BC45" d="M4.051,37.366v0.023c0,0.093,0.084,0.185,0.182,0.18c0.096-0.004,0.178-0.079,0.178-0.18v-0.023
		c0-0.095-0.082-0.185-0.178-0.18C4.135,37.191,4.051,37.266,4.051,37.366"/>
	<path fill="#D8BC45" d="M4.124,36.863c0-0.23-0.36-0.232-0.36,0C3.764,37.094,4.124,37.094,4.124,36.863"/>
	<path fill="#D8BC45" d="M3.956,36.217c0-0.23-0.359-0.23-0.359,0S3.956,36.449,3.956,36.217"/>
	<path fill="#D8BC45" d="M4.005,35.595c0-0.23-0.36-0.23-0.36,0S4.005,35.825,4.005,35.595"/>
	<path fill="#D8BC45" d="M6.281,35.683c0,0,0.671,0.537,1.105,1.396C7.82,37.94,7.852,38.8,7.852,38.8s-0.672-0.537-1.105-1.397
		C6.313,36.541,6.281,35.683,6.281,35.683"/>
	<path fill="#D8BC45" d="M4.232,44.425c0,0,0.074-0.066,0.19-0.186c0.115-0.119,0.28-0.289,0.479-0.494
		c0.097-0.102,0.203-0.211,0.315-0.327c0.107-0.119,0.227-0.239,0.344-0.369c0.24-0.258,0.488-0.537,0.734-0.842
		c0.249-0.304,0.475-0.604,0.677-0.891c0.104-0.139,0.199-0.281,0.293-0.411c0.091-0.132,0.179-0.259,0.259-0.373
		c0.16-0.236,0.293-0.433,0.387-0.569c0.094-0.139,0.143-0.224,0.143-0.224s-0.094,0.007-0.265,0.035
		c-0.041,0.007-0.09,0.017-0.141,0.025c-0.052,0.01-0.104,0.024-0.163,0.039c-0.117,0.031-0.252,0.066-0.394,0.121
		c-0.07,0.025-0.145,0.055-0.222,0.085c-0.077,0.032-0.152,0.069-0.232,0.109c-0.163,0.077-0.324,0.174-0.494,0.282
		c-0.33,0.221-0.666,0.509-0.958,0.863c-0.289,0.357-0.503,0.745-0.653,1.114c-0.072,0.187-0.135,0.365-0.178,0.539
		c-0.021,0.086-0.043,0.168-0.06,0.25c-0.015,0.081-0.028,0.16-0.038,0.234c-0.025,0.149-0.032,0.289-0.039,0.409
		c-0.003,0.061-0.006,0.117-0.006,0.169c0,0.051,0.002,0.1,0.003,0.143C4.221,44.33,4.232,44.425,4.232,44.425"/>
	<path fill="#D8BC45" d="M1.915,42.591c0,0,1.208-0.177,2.324-0.94c1.116-0.766,1.717-1.829,1.717-1.829s-1.208,0.177-2.324,0.942
		C2.516,41.527,1.915,42.591,1.915,42.591"/>
	<path fill="#D8BC45" d="M0.671,39.735C1.41,40.242,1.915,40.1,1.915,40.1s-0.317,0.135-0.317,0.672s0.699,0.784,0.699,0.784
		c0.394-1.321,1.639-1.82,1.639-1.82s-1.245-0.499-1.639-1.818c0,0-0.699,0.245-0.699,0.782s0.317,0.671,0.317,0.671
		S1.41,39.228,0.671,39.735"/>
	<path fill="#D8BC45" d="M4.051,42.104V42.08c0-0.094,0.084-0.184,0.182-0.179C4.328,41.905,4.41,41.98,4.41,42.08v0.024
		c0,0.095-0.082,0.185-0.178,0.18C4.135,42.279,4.051,42.205,4.051,42.104"/>
	<path fill="#D8BC45" d="M4.124,42.607c0,0.231-0.36,0.231-0.36,0C3.764,42.377,4.124,42.376,4.124,42.607"/>
	<path fill="#D8BC45" d="M3.956,43.254c0,0.23-0.359,0.23-0.359,0S3.956,43.023,3.956,43.254"/>
	<path fill="#D8BC45" d="M4.005,43.876c0,0.23-0.36,0.23-0.36,0S4.005,43.646,4.005,43.876"/>
	<path fill="#D8BC45" d="M6.281,43.788c0,0,0.671-0.536,1.105-1.398c0.434-0.859,0.465-1.719,0.465-1.719s-0.672,0.537-1.105,1.398
		C6.313,42.93,6.281,43.788,6.281,43.788"/>
</g>
</svg>
