<?xml version="1.0" encoding="UTF-8" standalone="no"?>
<svg
   version="1.1"
   id="Layer_1"
   x="0px"
   y="0px"
   viewBox="0 0 2638 514.072"
   enable-background="new 0 0 2638 514.072"
   sodipodi:docname="divider-3166117-gold.svg"
   inkscape:version="1.1.2 (0a00cf5339, 2022-02-04)"
   xmlns:inkscape="http://www.inkscape.org/namespaces/inkscape"
   xmlns:sodipodi="http://sodipodi.sourceforge.net/DTD/sodipodi-0.dtd"
   xmlns="http://www.w3.org/2000/svg"
   xmlns:svg="http://www.w3.org/2000/svg">
  <defs
     id="defs11" />
  <sodipodi:namedview
     id="namedview9"
     pagecolor="#ffffff"
     bordercolor="#666666"
     borderopacity="1.0"
     inkscape:pageshadow="2"
     inkscape:pageopacity="0.0"
     inkscape:pagecheckerboard="0"
     showgrid="false"
     inkscape:zoom="0.2799099"
     inkscape:cx="1613.0191"
     inkscape:cy="259.01192"
     inkscape:window-width="1366"
     inkscape:window-height="708"
     inkscape:window-x="0"
     inkscape:window-y="0"
     inkscape:window-maximized="1"
     inkscape:current-layer="Layer_1" />
  <g
     id="_800784512"
     style="fill:#daa520;fill-opacity:1">
    <g
       id="g4"
       style="fill:#daa520;fill-opacity:1">
      <path
         d="m 1319,64.735 c 40.31,20.672 69.543,52.727 83.262,86.264 69.015,23.89 81.649,-38.096 57.104,-53.875 -7.297,-4.529 -18.992,-1.583 -18.992,0.258 0,0 11.904,0.694 15.245,9.431 4.416,12.143 -5.531,26.738 -19.509,24.935 -24.249,-2.694 -27.644,-33.091 -9.431,-47.286 14.611,-11.558 43.465,-6.375 52.324,21.188 15.069,46.881 -35.763,76.58 -73.125,55.683 14.364,51.299 -19.508,65.479 -35.916,48.707 -12.412,-12.688 -0.917,-37.18 -3.359,-58.267 -2.74,-21.692 -19.397,-47.428 -47.604,-68.167 -28.208,20.738 -44.865,46.474 -47.604,68.167 -2.442,21.087 9.053,45.579 -3.359,58.267 -16.408,16.773 -50.28,2.592 -35.916,-48.707 -37.361,20.897 -88.193,-8.802 -73.125,-55.683 8.859,-27.563 37.713,-32.746 52.324,-21.188 18.213,14.195 14.817,44.591 -9.431,47.286 -13.978,1.804 -23.924,-12.792 -19.509,-24.935 3.341,-8.737 15.245,-9.431 15.245,-9.431 0,-1.841 -11.695,-4.787 -18.992,-0.258 -24.544,15.778 -11.91,77.764 57.104,53.875 13.721,-33.538 42.954,-65.592 83.264,-86.264 z m 0,242.567 c 10.054,-12.04 17.696,-31.185 16.727,-56.694 -1.544,-30.503 -2.841,-18.009 13.436,4.78 50.364,70.51 138.404,51.326 126.224,-14.212 -5.023,-28.381 -32.511,-46.129 -58.913,-29.327 -49.702,30.983 18.63,72.102 32.686,35.4 2.196,-5.943 2.972,-12.661 4.909,-12.144 9.011,3.004 8.459,49.524 -33.332,49.999 -56.289,0 -92.415,-78.989 -85.915,-93.537 4.578,-10.759 23.102,-21.064 11.757,-49.094 -5.325,-12.998 -14.714,-25.981 -27.579,-37.608 -12.865,11.627 -22.255,24.609 -27.579,37.608 -11.346,28.03 7.178,38.335 11.757,49.094 6.5,14.549 -29.626,93.537 -85.915,93.537 -41.792,-0.475 -42.343,-46.995 -33.332,-49.999 1.938,-0.517 2.713,6.201 4.909,12.144 14.056,36.702 82.388,-4.417 32.686,-35.4 -26.402,-16.801 -53.89,0.946 -58.913,29.327 -12.18,65.538 75.86,84.721 126.224,14.212 16.278,-22.789 14.981,-35.283 13.436,-4.78 -0.969,25.509 6.673,44.654 16.727,56.694 z m 196.954,-200.488 c -4.322,11.884 5.219,26.749 19.509,24.935 24.156,-2.727 27.399,-33.072 9.431,-47.286 -14.915,-11.625 -43.638,-6.238 -52.453,21.188 -15.003,46.675 35.983,76.816 73.125,55.683 -14.257,50.917 19.347,65.644 35.916,48.707 12.575,-12.855 0.785,-36.864 3.488,-58.267 4.746,-40.988 60.753,-97.131 150.125,-105.423 10.788,-1.011 43.046,-2.634 9.819,-4.522 -102.513,-5.759 -173.176,54.036 -195.731,109.17 -68.207,24.554 -82.052,-38.309 -56.975,-53.875 7.001,-4.345 18.572,-1.842 18.992,0.258 -10e-4,10e-4 -12.154,0.672 -15.246,9.432 z m -409.153,-9.431 c 0.42,-2.101 11.991,-4.604 18.992,-0.258 25.077,15.565 11.231,78.429 -56.975,53.875 C 1046.263,95.866 975.6,36.071 873.087,41.83 c -33.227,1.888 -0.969,3.51 9.819,4.522 89.372,8.292 145.379,64.435 150.125,105.423 2.703,21.403 -9.087,45.412 3.488,58.267 16.569,16.937 50.173,2.21 35.916,-48.707 37.142,21.132 88.127,-9.008 73.125,-55.683 -8.815,-27.426 -37.538,-32.813 -52.453,-21.188 -17.968,14.213 -14.725,44.558 9.431,47.286 14.29,1.815 23.83,-13.05 19.509,-24.935 -3.093,-8.761 -15.246,-9.432 -15.246,-9.432 z m 1286.132,316.399 c -48.552,-46.394 -2.458,-109.462 37.467,-99.48 21.491,5.373 40.254,28.768 30.103,52.453 -11.747,26.605 -41.648,24.814 -52.712,10.852 -9.093,-11.474 0.647,-31.291 16.925,-36.175 6.46,-1.809 13.049,-1.163 12.661,-3.101 -2.993,-13.968 -52.159,-5.32 -48.965,35.141 4.341,54.263 70.451,46.263 83.59,46.381 66.546,0.368 146.135,-16.55 122.865,-8.914 -39.354,13.118 -246.227,52.227 -399.214,-41.084 12.308,66.815 -60.097,109.362 -134.363,101.935 -144.078,-14.408 -182.047,-197.211 -64.469,-282.55 -50.2,-47.535 -105.65,-74.452 -165.887,-39.405 -39.196,22.397 -64.236,-33.61 16.537,-36.175 24.523,-0.584 52.535,5.795 66.536,10.336 -91.274,-59.568 -162.313,-36.735 -189.142,5.297 -33.121,50.496 3.21,106.302 45.218,86.173 6.201,-2.842 8.656,-7.235 8.01,-8.656 -0.646,-1.55 -4.264,-0.258 -9.044,-0.129 -34.018,0.895 -46.483,-51.721 -8.656,-59.042 37.622,-7.889 56.79,28.987 45.735,56.846 -19.193,50.381 -97.451,44.642 -110.333,-19.767 -10.249,-47.828 -16.811,85.765 68.99,96.38 72.055,8.914 42.768,-75.749 78.422,-83.977 44.456,-11.114 56.51,69.973 -3.23,103.486 -74.239,41.988 -147.25,-6.13 -162.011,-77.388 -21.169,-102.923 66.911,-143.471 115.501,-146.508 -102.83,-13.413 -158.239,80.662 -128.937,161.753 10.289,28.475 31.361,51.764 29.457,68.086 -4.169,35.138 -61.439,9.25 -58.138,-55.942 1.126,-29.657 3.564,-19.202 -13.565,4.78 -50.932,71.304 -138.238,50.437 -126.224,-14.212 4.974,-28.104 32.355,-46.31 59.042,-29.327 49.887,31.098 -19.399,72.135 -32.687,35.4 -2.325,-5.943 -3.101,-12.661 -5.039,-12.144 -8.755,3.127 -8.245,49.521 33.332,49.999 56.668,0 92.225,-79.012 86.044,-93.537 -4.634,-10.371 -23.016,-21.278 -11.757,-49.094 30.829,-75.26 197.826,-150.283 387.328,36.304 94.158,-56.495 220.753,-18.963 273.119,58.009 33.41,-17.082 81.748,-7.846 99.48,33.203 17.845,41.308 -15.415,71.876 -38.242,69.507 -21.725,-2.254 -41.935,-34.779 -20.671,-51.42 11.377,-9.151 23.5,-0.61 16.795,16.149 -1.914,4.558 -19.083,26.172 3.23,20.8 50.631,-12.419 30.351,-96.175 -37.983,-80.23 -4.909,1.163 -9.69,2.971 -14.341,5.297 24.677,43.744 23.608,103.518 14.599,145.345 27.304,8.473 56.878,14.588 84.624,18.345 z M 329.69,395.436 c -9.009,-41.827 -10.077,-101.6 14.599,-145.345 -4.651,-2.326 -9.431,-4.134 -14.341,-5.297 -68.334,-15.945 -88.615,67.811 -37.983,80.23 22.313,5.372 5.144,-16.243 3.23,-20.8 -6.704,-16.76 5.418,-25.301 16.795,-16.149 21.264,16.641 1.053,49.165 -20.671,51.42 -22.827,2.369 -56.087,-28.199 -38.242,-69.507 17.733,-41.049 66.07,-50.285 99.48,-33.203 52.366,-76.972 178.961,-114.504 273.119,-58.009 189.503,-186.587 356.499,-111.564 387.329,-36.304 11.259,27.816 -7.123,38.724 -11.757,49.094 -6.181,14.526 29.377,93.537 86.044,93.537 41.577,-0.478 42.088,-46.872 33.332,-49.999 -1.938,-0.517 -2.713,6.201 -5.039,12.144 -13.287,36.735 -82.574,-4.301 -32.687,-35.4 26.688,-16.983 54.068,1.224 59.042,29.327 12.014,64.648 -75.292,85.516 -126.224,14.212 -17.13,-23.982 -14.692,-34.437 -13.566,-4.78 3.301,65.192 -53.969,91.079 -58.138,55.942 -1.904,-16.322 19.167,-39.611 29.457,-68.086 29.302,-81.09 -26.107,-175.165 -128.937,-161.753 48.59,3.037 136.669,43.585 115.501,146.508 -14.761,71.258 -87.772,119.376 -162.011,77.388 -59.74,-33.513 -47.685,-114.599 -3.23,-103.486 35.653,8.228 6.367,92.891 78.422,83.977 85.802,-10.615 79.239,-144.208 68.99,-96.38 -12.882,64.409 -91.14,70.148 -110.333,19.767 -11.055,-27.859 8.113,-64.735 45.735,-56.846 37.827,7.321 25.361,59.938 -8.656,59.042 -4.78,-0.129 -8.398,-1.421 -9.044,0.129 -0.646,1.421 1.809,5.814 8.01,8.656 42.008,20.129 78.339,-35.678 45.218,-86.173 -26.829,-42.032 -97.868,-64.865 -189.142,-5.297 14.001,-4.541 42.013,-10.92 66.536,-10.336 80.773,2.564 55.733,58.572 16.537,36.175 -60.237,-35.047 -115.687,-8.13 -165.887,39.405 117.578,85.339 79.609,268.143 -64.469,282.55 -74.267,7.427 -146.671,-35.12 -134.363,-101.935 -152.987,93.311 -359.86,54.202 -399.214,41.084 -23.27,-7.635 56.319,9.282 122.865,8.914 13.138,-0.118 79.248,7.882 83.589,-46.381 3.194,-40.461 -45.972,-49.109 -48.965,-35.141 -0.388,1.938 6.201,1.292 12.661,3.101 16.278,4.883 26.017,24.701 16.925,36.175 -11.064,13.962 -40.964,15.752 -52.712,-10.852 -10.151,-23.686 8.611,-47.081 30.103,-52.453 39.925,-9.981 86.019,53.086 37.467,99.48 27.748,-3.756 57.322,-9.871 84.625,-18.345 z m 1950.585,-9.689 c -51.545,-52.182 -33.468,-115.565 -8.785,-139.014 -59.478,-77.218 -177.794,-95.566 -245.988,-54.65 61.788,62.377 128.373,129.132 206.583,171.442 -61,-59.152 -35.131,-159.158 -1.679,-125.707 19.963,19.438 -25.555,24.759 -11.886,78.422 9.043,35.658 28.81,56.716 61.755,69.507 z M 419.481,316.24 c 13.669,-53.662 -31.849,-58.984 -11.886,-78.422 33.451,-33.451 59.321,66.555 -1.68,125.707 78.211,-42.311 144.795,-109.066 206.583,-171.442 -68.194,-40.916 -186.51,-22.568 -245.988,54.65 24.683,23.449 42.76,86.833 -8.785,139.014 32.945,-12.791 52.712,-33.849 61.756,-69.507 z m 1860.665,-56.976 c -27.104,23.916 -34.539,73.858 12.403,131.004 1.421,0.517 2.842,1.034 4.263,1.421 8.444,-45.695 8.786,-90.61 -16.666,-132.425 z M 341.188,391.69 c 1.421,-0.388 2.842,-0.904 4.263,-1.421 46.942,-57.146 39.507,-107.089 12.403,-131.004 -25.452,41.814 -25.11,86.729 -16.666,132.425 z M 2009.481,201.643 c -75.452,50.569 -87.825,172.868 -13.178,230.097 76.745,59.748 207.146,11.978 186.171,-57.75 -23.999,-78.312 -167.35,-45.724 -142.761,29.069 6.423,19.27 28.469,16.318 28.294,11.757 0,-4.558 -25.429,-26.011 0.258,-42.764 20.188,-12.689 49.815,-0.227 50.774,27.906 2.216,65.017 -122.954,47.398 -104.132,-29.715 11.559,-47.356 61.541,-61.271 109.041,-55.683 -33.512,-31.119 -109.901,-108.408 -114.467,-112.917 z M 514.052,314.56 c 47.5,-5.588 97.482,8.327 109.041,55.683 18.823,77.113 -106.348,94.732 -104.132,29.715 0.959,-28.133 30.586,-40.595 50.774,-27.906 25.687,16.753 0.258,38.205 0.258,42.764 -0.175,4.561 21.87,7.513 28.294,-11.757 24.59,-74.793 -118.762,-107.381 -142.761,-29.069 -20.975,69.728 109.425,117.499 186.171,57.75 74.647,-57.23 62.274,-179.528 -13.178,-230.097 -4.566,4.509 -80.955,81.798 -114.467,112.917 z"
         id="path2"
         style="fill:#daa520;fill-opacity:1" />
    </g>
  </g>
</svg>
