<?xml version="1.0" encoding="UTF-8" standalone="no"?>
<svg
   version="1.1"
   id="Layer_1"
   x="0px"
   y="0px"
   viewBox="0 0 1920.872 50"
   enable-background="new 0 0 2609.872 678.208"
   sodipodi:docname="divider1.svg"
   inkscape:version="1.1.2 (0a00cf5339, 2022-02-04)"
   width="1920.8721"
   height="50"
   xmlns:inkscape="http://www.inkscape.org/namespaces/inkscape"
   xmlns:sodipodi="http://sodipodi.sourceforge.net/DTD/sodipodi-0.dtd"
   xmlns="http://www.w3.org/2000/svg"
   xmlns:svg="http://www.w3.org/2000/svg">
  <defs
     id="defs9" />
  <sodipodi:namedview
     id="namedview7"
     pagecolor="#ffffff"
     bordercolor="#666666"
     borderopacity="1.0"
     inkscape:pageshadow="2"
     inkscape:pageopacity="0.0"
     inkscape:pagecheckerboard="0"
     showgrid="false"
     inkscape:zoom="0.29857056"
     inkscape:cx="1277.7549"
     inkscape:cy="339.95314"
     inkscape:window-width="1366"
     inkscape:window-height="708"
     inkscape:window-x="0"
     inkscape:window-y="0"
     inkscape:window-maximized="1"
     inkscape:current-layer="Layer_1" />
  <g
     id="g878"
     transform="matrix(1.0080875,0,0,0.07538644,-10.178109,-6.3459906)"
     style="stroke-width:3.62748">
    <g
       id="Layer_x0020_1"
       style="fill:#daa520;fill-opacity:1;stroke-width:5.89802"
       transform="matrix(0.74478659,0,0,0.50788865,-7.9962,12.353963)">
      <g
         id="_804538528"
         style="fill:#daa520;fill-opacity:1;stroke-width:5.89802">
        <path
           d="m 2570.954,552.196 h -359.147 c -2.018,6.053 -4.237,11.904 -6.86,17.756 h 379.525 z M 25.4,569.951 h 379.525 c -2.623,-5.851 -4.842,-11.703 -6.86,-17.756 H 38.918 Z m 2155.537,-17.755 h -577.056 l 13.317,17.756 h 556.476 c 3.026,-5.65 5.447,-11.703 7.263,-17.756 z M 436.199,569.951 h 556.476 l 13.317,-17.756 H 428.935 c 1.816,6.054 4.238,12.107 7.264,17.756 z m 1684.409,-157.58 c 127.322,66.926 72.824,245.595 -80.304,200.557 -6.8,-27.2 -40.571,-14.279 -26.23,4.842 14.204,17.482 71.633,22.292 105.928,14.527 154.051,-32.432 141.77,-340.372 -204.189,-290.949 l -5.851,1.009 c 4.454,13.363 6.457,29.025 6.457,41.968 75.185,-11.748 159.016,4.03 204.189,28.046 z M 693.453,384.325 c 0,-12.943 2.002,-28.605 6.457,-41.968 l -5.851,-1.009 c -345.959,-49.422 -358.24,258.518 -204.19,290.95 34.296,7.765 91.724,2.955 105.928,-14.527 14.341,-19.122 -19.43,-32.042 -26.23,-4.842 -153.128,45.038 -207.626,-133.631 -80.304,-200.557 45.174,-24.017 129.005,-39.795 204.19,-28.047 z m 611.483,268.71 c 44.712,1.082 97.573,-10.444 158.111,-40.712 142.041,-72.224 280.55,-188.33 425.327,-222.55 0.699,-7.692 -0.533,-28.82 -6.255,-42.169 -179.645,38.222 -378.754,237.228 -533.676,266.737 -14.908,2.84 -29.452,4.841 -43.506,5.737 -14.054,-0.896 -28.599,-2.897 -43.507,-5.737 -154.922,-29.509 -354.031,-228.515 -533.676,-266.737 -5.721,13.35 -6.954,34.478 -6.255,42.169 144.777,34.22 283.285,150.326 425.327,222.55 60.537,30.268 113.398,41.794 158.11,40.712 z m 0,-358.695 c 22.271,-0.925 48.446,6.113 65.701,13.717 19.972,8.654 37.992,20.467 51.451,29.256 -42.623,42.623 -85.818,53.343 -117.152,47.194 -31.333,6.149 -74.529,-4.571 -117.152,-47.194 13.458,-8.789 31.479,-20.602 51.451,-29.256 17.255,-7.604 43.43,-14.642 65.701,-13.717 z m 0,-239.059 c 88.649,15.519 167.395,80.645 153.268,200.72 -4.862,40.113 -15.71,56.093 -23.203,66.583 h -0.202 l -1.211,1.614 c -54.243,-37.97 -97.237,-50.412 -128.653,-48.155 -31.416,-2.257 -74.409,10.185 -128.653,48.155 l -1.211,-1.614 h -0.202 c -7.493,-10.491 -18.341,-26.47 -23.203,-66.583 -14.125,-120.076 64.621,-185.201 153.27,-200.72 z m 0,346.809 c 7.159,0.93 14.935,1.168 23.33,0.596 42.206,-1.876 78.923,-25.656 108.551,-55.284 21.107,14.589 37.447,26.373 57.302,40.555 -70.908,50.382 -135.045,76.953 -189.183,85.924 -54.138,-8.971 -118.275,-35.542 -189.183,-85.924 19.855,-14.182 36.195,-25.967 57.302,-40.555 29.628,29.628 66.345,53.409 108.551,55.284 8.395,0.572 16.171,0.334 23.33,-0.596 z m 0,104.151 c 63.325,-4.31 139.333,-31.524 224.694,-93.063 39.014,27.01 63.885,42.649 87.971,57.1 l 16.747,-10.29 c -6.626,-4.016 -37.521,-21.307 -89.585,-57.706 456.999,-330.93 424.91,198.967 141.439,83.935 l -18.159,11.097 c 70.932,35.466 167.742,30.664 221.743,-40.757 39.977,-51.97 32.234,-162.492 -80.707,-193.495 -105.862,-29.238 -212.751,52.87 -300.029,114.201 -33.441,-23.832 -44.252,-31.711 -60.127,-42.775 86.722,-100.064 43.46,-258.4 -100.682,-301.643 -13.974,-3.966 -28.518,-6.518 -43.305,-7.741 -14.787,1.224 -29.331,3.776 -43.305,7.741 -144.142,43.243 -187.404,201.579 -100.682,301.643 -15.875,11.064 -26.686,18.943 -60.127,42.775 -87.278,-61.33 -194.167,-143.439 -300.029,-114.201 -112.941,31.003 -120.684,141.526 -80.707,193.495 54.001,71.421 150.811,76.223 221.743,40.757 L 923.67,486.217 C 640.199,601.25 608.111,71.352 1065.109,402.282 c -52.064,36.399 -82.958,53.69 -89.585,57.706 l 16.747,10.29 c 24.085,-14.451 48.957,-30.09 87.971,-57.1 85.361,61.539 161.369,88.753 224.694,93.063 z"
           id="path2"
           style="fill:#daa520;fill-opacity:1;stroke-width:5.89802" />
      </g>
    </g>
    <g
       id="g827"
       style="fill:#daa520;fill-opacity:1;stroke-width:5.89802"
       transform="matrix(-0.74478659,0,0,-0.50788865,1935.8014,675.72722)">
      <g
         id="g825"
         style="fill:#daa520;fill-opacity:1;stroke-width:5.89802">
        <path
           d="m 2570.954,552.196 h -359.147 c -2.018,6.053 -4.237,11.904 -6.86,17.756 h 379.525 z M 25.4,569.951 h 379.525 c -2.623,-5.851 -4.842,-11.703 -6.86,-17.756 H 38.918 Z m 2155.537,-17.755 h -577.056 l 13.317,17.756 h 556.476 c 3.026,-5.65 5.447,-11.703 7.263,-17.756 z M 436.199,569.951 h 556.476 l 13.317,-17.756 H 428.935 c 1.816,6.054 4.238,12.107 7.264,17.756 z m 1684.409,-157.58 c 127.322,66.926 72.824,245.595 -80.304,200.557 -6.8,-27.2 -40.571,-14.279 -26.23,4.842 14.204,17.482 71.633,22.292 105.928,14.527 154.051,-32.432 141.77,-340.372 -204.189,-290.949 l -5.851,1.009 c 4.454,13.363 6.457,29.025 6.457,41.968 75.185,-11.748 159.016,4.03 204.189,28.046 z M 693.453,384.325 c 0,-12.943 2.002,-28.605 6.457,-41.968 l -5.851,-1.009 c -345.959,-49.422 -358.24,258.518 -204.19,290.95 34.296,7.765 91.724,2.955 105.928,-14.527 14.341,-19.122 -19.43,-32.042 -26.23,-4.842 -153.128,45.038 -207.626,-133.631 -80.304,-200.557 45.174,-24.017 129.005,-39.795 204.19,-28.047 z m 611.483,268.71 c 44.712,1.082 97.573,-10.444 158.111,-40.712 142.041,-72.224 280.55,-188.33 425.327,-222.55 0.699,-7.692 -0.533,-28.82 -6.255,-42.169 -179.645,38.222 -378.754,237.228 -533.676,266.737 -14.908,2.84 -29.452,4.841 -43.506,5.737 -14.054,-0.896 -28.599,-2.897 -43.507,-5.737 -154.922,-29.509 -354.031,-228.515 -533.676,-266.737 -5.721,13.35 -6.954,34.478 -6.255,42.169 144.777,34.22 283.285,150.326 425.327,222.55 60.537,30.268 113.398,41.794 158.11,40.712 z m 0,-358.695 c 22.271,-0.925 48.446,6.113 65.701,13.717 19.972,8.654 37.992,20.467 51.451,29.256 -42.623,42.623 -85.818,53.343 -117.152,47.194 -31.333,6.149 -74.529,-4.571 -117.152,-47.194 13.458,-8.789 31.479,-20.602 51.451,-29.256 17.255,-7.604 43.43,-14.642 65.701,-13.717 z m 0,-239.059 c 88.649,15.519 167.395,80.645 153.268,200.72 -4.862,40.113 -15.71,56.093 -23.203,66.583 h -0.202 l -1.211,1.614 c -54.243,-37.97 -97.237,-50.412 -128.653,-48.155 -31.416,-2.257 -74.409,10.185 -128.653,48.155 l -1.211,-1.614 h -0.202 c -7.493,-10.491 -18.341,-26.47 -23.203,-66.583 -14.125,-120.076 64.621,-185.201 153.27,-200.72 z m 0,346.809 c 7.159,0.93 14.935,1.168 23.33,0.596 42.206,-1.876 78.923,-25.656 108.551,-55.284 21.107,14.589 37.447,26.373 57.302,40.555 -70.908,50.382 -135.045,76.953 -189.183,85.924 -54.138,-8.971 -118.275,-35.542 -189.183,-85.924 19.855,-14.182 36.195,-25.967 57.302,-40.555 29.628,29.628 66.345,53.409 108.551,55.284 8.395,0.572 16.171,0.334 23.33,-0.596 z m 0,104.151 c 63.325,-4.31 139.333,-31.524 224.694,-93.063 39.014,27.01 63.885,42.649 87.971,57.1 l 16.747,-10.29 c -6.626,-4.016 -37.521,-21.307 -89.585,-57.706 456.999,-330.93 424.91,198.967 141.439,83.935 l -18.159,11.097 c 70.932,35.466 167.742,30.664 221.743,-40.757 39.977,-51.97 32.234,-162.492 -80.707,-193.495 -105.862,-29.238 -212.751,52.87 -300.029,114.201 -33.441,-23.832 -44.252,-31.711 -60.127,-42.775 86.722,-100.064 43.46,-258.4 -100.682,-301.643 -13.974,-3.966 -28.518,-6.518 -43.305,-7.741 -14.787,1.224 -29.331,3.776 -43.305,7.741 -144.142,43.243 -187.404,201.579 -100.682,301.643 -15.875,11.064 -26.686,18.943 -60.127,42.775 -87.278,-61.33 -194.167,-143.439 -300.029,-114.201 -112.941,31.003 -120.684,141.526 -80.707,193.495 54.001,71.421 150.811,76.223 221.743,40.757 L 923.67,486.217 C 640.199,601.25 608.111,71.352 1065.109,402.282 c -52.064,36.399 -82.958,53.69 -89.585,57.706 l 16.747,10.29 c 24.085,-14.451 48.957,-30.09 87.971,-57.1 85.361,61.539 161.369,88.753 224.694,93.063 z"
           id="path823"
           style="fill:#daa520;fill-opacity:1;stroke-width:5.89802" />
      </g>
    </g>
  </g>
</svg>
